<svg width="107" height="114" viewBox="0 0 107 114" fill="none" xmlns="http://www.w3.org/2000/svg">
<path d="M7.13297 113.991H30.9092C32.3496 113.99 33.756 113.524 34.9435 112.655C36.131 111.785 37.0432 110.552 37.5598 109.12C51.3611 112.506 65.4884 114.141 79.6501 113.991C84.7964 113.991 88.7876 112.621 91.5334 110.309C94.1679 108.161 95.7086 104.825 95.6987 101.29C95.6962 100.224 95.5685 99.1643 95.3197 98.1324C96.6573 97.316 97.8166 96.2055 98.7206 94.8742C99.8293 93.1762 100.412 91.1503 100.388 89.0823C100.333 86.9549 99.8724 84.862 99.0332 82.9317C100.749 82.0005 102.191 80.5843 103.203 78.8385C104.214 77.0928 104.755 75.0846 104.768 73.0332C104.733 70.4481 103.947 67.9375 102.517 65.8479C102.716 65.5882 102.948 65.3081 103.216 64.9962C104.219 63.9043 105.061 62.655 105.71 61.2928C106.622 59.1503 107.061 56.8144 106.993 54.4636C107.059 52.1755 106.496 49.9157 105.374 47.9641C104.06 45.8844 102.097 44.3675 99.8342 43.6836C98.6915 43.302 97.5039 43.0935 96.3066 43.0643H79.6537C79.0508 43.0625 78.5524 43.0528 78.1701 43.0228V43.0237C77.9521 43.0113 77.7348 42.9804 77.5208 42.9336L77.4495 42.9097H77.4487C77.5316 42.1844 77.695 41.4732 77.9346 40.7885C79.72 35.0848 80.6744 29.1242 80.7649 23.1122C80.7624 16.4853 79.3377 10.7481 76.3565 6.59135C74.8788 4.51256 72.9525 2.84286 70.74 1.72605C68.3152 0.545727 65.6733 -0.0426474 63.0072 0.00240514C62.1091 -0.0126137 61.2143 0.114605 60.351 0.380534C59.2166 0.715375 58.2298 1.46632 57.5648 2.50085C56.9519 3.54952 56.6443 4.76863 56.6824 6.00373C56.7438 11.2727 56.2736 16.5345 55.2802 21.6968C54.5662 25.7165 53.0794 29.5366 50.9151 32.9158C46.5823 39.1682 41.5952 45.5255 37.1032 51.9704C36.4805 50.8042 35.5799 49.835 34.4919 49.1609C33.4039 48.486 32.1675 48.1308 30.9095 48.1308H7.13326C5.2409 48.1308 3.4265 48.9312 2.08887 50.3563C0.751287 51.7813 0 53.7144 0 55.7295V106.391C0 108.407 0.751308 110.34 2.08887 111.765C3.42646 113.19 5.24092 113.991 7.13326 113.991L7.13297 113.991ZM2.37729 55.7299C2.37729 54.3862 2.87817 53.098 3.77043 52.1474C4.66187 51.1977 5.87175 50.6641 7.13308 50.6641H30.9093C32.1698 50.6641 33.3797 51.1977 34.272 52.1474C35.1634 53.098 35.6643 54.387 35.6643 55.7299V106.391C35.6643 107.735 35.1634 109.024 34.272 109.974C33.3797 110.924 32.1698 111.458 30.9093 111.458H7.13308C5.87179 111.458 4.66183 110.924 3.77043 109.974C2.87817 109.024 2.37729 107.735 2.37729 106.391V55.7299ZM52.8275 34.4207C55.1918 30.7579 56.8171 26.6118 57.6015 22.2447C58.6331 16.9024 59.1223 11.4577 59.0601 6.00391C59.0485 5.47648 59.1256 4.95083 59.2865 4.45165C59.4789 3.86681 59.8719 3.38177 60.3869 3.09465C61.2037 2.68031 62.1035 2.48771 63.0074 2.53541C65.3218 2.49035 67.6164 2.99658 69.7244 4.0161C72.582 5.49768 74.8592 8.00139 76.1601 11.0899C77.7299 14.8721 78.4911 18.9784 78.3875 23.1121C78.2962 28.8617 77.3799 34.5636 75.67 40.0172C75.3383 40.9572 75.1359 41.9431 75.0688 42.944C75.0547 43.4714 75.1973 43.9891 75.4768 44.4247C75.7007 44.7507 76 45.0086 76.3458 45.1739C76.8152 45.3832 77.3144 45.5051 77.8227 45.5352C78.3518 45.5847 78.9455 45.5953 79.6462 45.5979L96.2943 45.597H96.3067C97.8176 45.6483 99.301 46.0459 100.655 46.7623C101.76 47.3498 102.698 48.2377 103.376 49.3377C104.251 50.8802 104.682 52.6621 104.616 54.4635C104.747 56.9018 104.156 59.3225 102.925 61.382C102.48 62.057 101.989 62.6957 101.456 63.2929C100.917 63.8813 100.437 64.528 100.023 65.2215C99.7744 65.6747 99.8134 66.2437 100.12 66.6536C101.542 68.4391 102.344 70.6918 102.39 73.0331C102.375 74.8044 101.856 76.529 100.9 77.9787C99.9452 79.4285 98.5993 80.5346 97.0411 81.1511C96.7318 81.2828 96.4896 81.5461 96.3711 81.8765C96.2533 82.2078 96.2707 82.5762 96.4192 82.8933C97.3919 84.7972 97.9367 86.9157 98.0105 89.0819C98.0362 90.6307 97.6025 92.1492 96.7724 93.4216C95.8926 94.6974 94.7283 95.7186 93.3841 96.3928C92.855 96.6746 92.6005 97.3284 92.7879 97.9256C93.1345 99.0096 93.3145 100.146 93.3211 101.29C93.3344 104.052 92.1245 106.657 90.0572 108.323C87.8489 110.188 84.4099 111.458 79.6502 111.458C65.6466 111.609 51.677 109.991 38.0311 106.637C38.0336 106.554 38.0427 106.474 38.0427 106.392V55.7305C38.0427 55.4655 38.0294 55.2013 38.0037 54.9372C42.6783 48.0868 48.0999 41.2407 52.8282 34.4213L52.8275 34.4207Z" fill="white"/>
</svg>
