<svg width="115" height="129" viewBox="0 0 115 129" fill="none" xmlns="http://www.w3.org/2000/svg">
<path d="M14.1559 127.857C13.8398 128.297 13.0806 128.472 12.4617 128.246C11.8427 128.022 11.5967 127.482 11.9141 127.042L12.1852 126.666C14.5276 123.413 15.714 121.764 19.4172 120.594C20.6922 120.191 21.7291 119.909 22.6311 119.664C25.2274 118.957 26.4748 118.617 26.599 117.051C26.8027 114.466 28.165 113.829 30.6831 113.929C31.5904 113.966 32.5943 114.121 33.7754 114.304L34.1881 114.367C36.295 114.691 38.2816 114.491 39.985 113.917C41.2918 113.477 42.4385 112.82 43.3564 112.009C43.3855 111.979 43.4172 111.95 43.4529 111.923L43.4834 111.895C44.4264 111.027 45.1088 109.994 45.4501 108.873C45.9289 107.297 45.7265 105.55 44.6102 103.848C42.084 103.832 39.4599 103.398 37.0725 102.592C34.3559 101.674 31.9314 100.272 30.2808 98.4547C28.4714 96.4622 27.5972 93.9847 28.2863 91.1134C28.404 90.6247 29.056 90.2967 29.7425 90.3803C30.4302 90.4639 30.8918 90.9273 30.7741 91.4151C30.2014 93.8023 30.917 95.8494 32.4036 97.4865C33.787 99.01 35.8396 100.191 38.1491 100.971C40.4769 101.758 43.0519 102.136 45.4593 102.045C48.0344 101.948 50.4033 101.312 52.0208 100.062C52.4929 99.6978 53.2905 99.6743 53.8037 100.01C54.3168 100.345 54.3499 100.912 53.8777 101.277C52.1544 102.608 49.8251 103.398 47.2661 103.704C48.303 105.589 48.4511 107.503 47.9195 109.252C47.8983 109.322 47.8758 109.39 47.8533 109.459C52.1731 107.33 55.8379 106.359 59.5028 105.389C60.2845 105.182 61.0662 104.974 62.1494 104.67C64.9586 103.88 66.309 103.273 66.8686 102.548C67.4083 101.85 67.313 100.824 67.1636 99.2869C66.8885 96.4579 67.9836 95.392 70.1236 95.2869C71.7187 95.2089 73.7357 95.8734 76.2037 96.6863L76.4616 96.7709C79.6927 97.8349 82.4966 97.8677 84.7279 97.192C86.4235 96.6788 87.8175 95.7531 88.8387 94.5595C89.8915 93.3283 90.5489 91.8094 90.7393 90.1527C90.898 88.7748 90.7314 87.3087 90.1983 85.8377C86.7728 86.0539 83.1608 85.5651 80.0447 83.8424C77.4207 82.3912 75.1802 80.0707 73.7585 76.5641C73.568 76.0895 73.9542 75.5942 74.6221 75.4588C75.2901 75.3235 75.9871 75.5979 76.1776 76.0726C77.4327 79.1684 79.3598 81.1883 81.595 82.425C83.9638 83.7351 86.7162 84.1703 89.3826 84.0801C88.503 82.5359 87.1976 81.0227 85.4146 79.6402C84.9451 79.2756 84.9808 78.7107 85.494 78.377C86.0071 78.0434 86.802 78.0688 87.2716 78.4334C91.9326 82.0473 93.698 86.4665 93.2578 90.2935C93.0356 92.223 92.2513 94.0125 90.9909 95.4871C89.6987 96.9994 87.9105 98.178 85.715 98.8424C82.8502 99.7098 79.3427 99.6967 75.4039 98.4006L75.146 98.316C73.0007 97.6093 71.2468 97.0313 70.2906 97.0783C69.7708 97.1036 69.5341 97.6563 69.6809 99.1694C69.8608 101.019 69.9719 102.257 69.0791 103.413C68.2062 104.544 66.4868 105.382 63.0759 106.341C62.367 106.54 61.3737 106.803 60.3791 107.066C55.8027 108.279 51.2267 109.492 45.316 113.135C44.1627 114.153 42.7144 114.983 41.0599 115.539C38.871 116.275 36.3329 116.534 33.6533 116.123L33.2406 116.059C32.1507 115.891 31.2236 115.747 30.5438 115.719C29.6814 115.685 29.2093 115.979 29.1167 117.149C28.9011 119.878 27.1579 120.353 23.53 121.341C22.6121 121.591 21.5553 121.878 20.4443 122.229C17.5491 123.144 16.4991 124.602 14.4276 127.48L14.1564 127.856L14.1559 127.857ZM81.9788 5.88341C82.8014 5.73586 83.6201 5.57891 84.4388 5.42288L83.7854 3.68697C82.976 3.84017 82.1679 3.9962 81.3571 4.14186L81.9788 5.88341ZM38.3583 24.5104L38.2842 24.4315L38.2379 24.3817L38.148 24.2802L38.1044 24.2294L38.0607 24.1777L38.0184 24.126L37.9337 24.0208L37.8517 23.9155L37.7724 23.8083L37.734 23.7548L37.6957 23.7003L37.6216 23.5912L37.5846 23.5358L37.5131 23.4249L37.4788 23.3694L37.4444 23.313L37.3782 23.2003L37.32 23.0959L34.9632 23.7454L34.9962 23.8065L35.0359 23.877L35.0769 23.9474L35.1179 24.017L35.1602 24.0865L35.2475 24.2256L35.3374 24.3629L35.3837 24.4315L35.479 24.5668L35.5279 24.6345L35.5768 24.7012L35.6271 24.7679L35.6787 24.8347L35.7303 24.9005L35.8361 25.032L35.8903 25.0969L35.9459 25.1617L36.0014 25.2256L36.1151 25.3535L36.1733 25.4174L36.2606 25.5095L38.3609 24.5104L38.3583 24.5104ZM36.8889 18.3543L36.9206 18.2688L36.9431 18.2096L36.9907 18.0931L37.0159 18.0348L37.0688 17.9183L37.0965 17.86L37.1243 17.8027L37.1825 17.688L37.2129 17.6307L37.2433 17.5743L37.3068 17.4615L37.3399 17.4051L37.373 17.3496L37.4074 17.2942L37.4431 17.2387L37.4788 17.1842L37.5528 17.0752L37.5912 17.0207L37.6296 16.9671L37.6904 16.8854L35.4671 16.0291L35.434 16.0724L35.3838 16.141L35.3335 16.2105L35.2846 16.2801L35.2369 16.3496L35.1893 16.4201L35.143 16.4906L35.0981 16.5611L35.0544 16.6316L35.0108 16.703L34.9685 16.7745L34.9274 16.8459L34.8481 16.9906L34.8097 17.063L34.7727 17.1354L34.737 17.2077L34.7013 17.281L34.6669 17.3543L34.6008 17.501L34.569 17.5743L34.5082 17.7228L34.4791 17.797L34.4421 17.8976L36.8876 18.3525L36.8889 18.3543ZM42.6805 13.9775L42.7598 13.9597L42.8617 13.9371L43.068 13.8939L43.1725 13.8732L43.2783 13.8525L43.3841 13.8328L43.4912 13.814L43.5997 13.7952L43.7095 13.7774L43.9317 13.7435L44.0441 13.7275L44.1578 13.7125L44.2729 13.6975C44.5096 13.6693 44.7464 13.6411 44.9818 13.611L44.5387 11.8422C44.3046 11.8713 44.0705 11.8995 43.8364 11.9277L43.6989 11.9456L43.5613 11.9644L43.4251 11.9841L43.2902 12.0038L43.1566 12.0245L43.023 12.0461L42.8908 12.0687L42.7598 12.0922L42.6289 12.1166L42.4993 12.1411L42.371 12.1664L42.244 12.1927L42.1171 12.22L41.9914 12.2482L41.912 12.2661L42.6818 13.9775L42.6805 13.9775ZM51.8911 10.2275C51.9493 9.97843 51.9956 9.72657 52.0485 9.47655C52.1159 9.15229 52.194 8.82993 52.2958 8.51039L49.8318 8.11C49.722 8.45212 49.6374 8.7961 49.5633 9.14197C49.5078 9.40608 49.4588 9.67111 49.398 9.93522L51.8924 10.2285L51.8911 10.2275ZM55.4385 4.23312C55.9702 3.85155 56.5667 3.50568 57.1923 3.2068L55.7903 1.7115C55.4398 1.8788 55.1052 2.05455 54.7759 2.24251C54.7031 2.28481 54.6304 2.3271 54.559 2.36939L54.4876 2.41263L54.346 2.49909L54.2058 2.58744L54.067 2.67673L53.9982 2.72184L53.862 2.81394L53.7284 2.90699L53.6464 2.96526L55.4372 4.23406L55.4385 4.23312ZM63.6002 1.79701C64.1835 1.80547 64.7416 1.85152 65.3103 1.94081C65.399 1.95491 65.4876 1.97089 65.5749 1.98686C65.641 1.99908 65.7058 2.01224 65.7719 2.0254L66.4782 0.300757L66.3909 0.2829L66.2163 0.249064L66.129 0.233086L65.9545 0.203011L65.7772 0.174815L65.6 0.148497L65.5114 0.136279L65.3341 0.113723L65.1569 0.0930457L64.977 0.0742486L64.8884 0.0657899L64.7985 0.0573314L64.7085 0.0498126L64.5287 0.0366544L64.3488 0.0253761L64.1689 0.0159775L63.989 0.0084587L63.8092 0.00281957L63.6624 0L63.5989 1.79605L63.6002 1.79701ZM71.2212 5.11084C71.9922 5.55821 72.8506 5.9163 73.7924 6.14844L74.6124 4.44918C73.9458 4.28188 73.3612 4.03281 72.8149 3.71609L71.2225 5.11084H71.2212ZM12.0053 59.5377C11.5701 59.517 11.2421 59.2501 11.2712 58.9408C11.3003 58.6316 11.6759 58.3985 12.1111 58.4192C13.886 58.5066 15.8315 58.845 17.904 59.4925C19.7768 60.078 21.7622 60.9211 23.8307 62.0658C24.1732 62.2556 24.2341 62.6071 23.9669 62.8505C23.6997 63.0939 23.2051 63.1372 22.8625 62.9473C20.9104 61.8665 19.0361 61.0704 17.269 60.5187C15.3698 59.9247 13.6055 59.6164 12.0077 59.5375L12.0053 59.5377ZM8.73312 122.21C8.33896 122.743 7.95541 123.279 7.56922 123.815L9.81897 124.635C10.1999 124.105 10.5808 123.573 10.971 123.045L8.73312 122.21ZM39.7787 108.356C39.542 108.6 39.2351 108.827 38.9336 109.032C38.714 109.181 38.4878 109.322 38.2537 109.459L39.8634 110.844C40.1821 110.657 40.4903 110.463 40.7866 110.258C41.1728 109.988 41.5471 109.697 41.8552 109.38L39.7787 108.356ZM32.1605 111.294C31.4119 111.311 30.6778 111.265 29.9437 111.158L29.4319 112.918C30.3604 113.053 31.2928 113.112 32.2411 113.091L32.1605 111.294ZM22.3414 113.188C22.2369 113.713 22.2792 114.258 22.02 114.763V114.762L24.3835 115.401C24.7618 114.685 24.7036 114.155 24.8464 113.437L22.3427 113.187L22.3414 113.188ZM16.4279 116.959C15.6052 117.198 14.7561 117.446 13.9824 117.76L15.2375 119.319C15.8909 119.047 16.6884 118.824 17.3855 118.622L16.4279 116.959ZM28.5816 48.6879C28.5101 48.6691 28.44 48.6456 28.3713 48.6174C25.4377 47.3881 21.9777 46.9135 18.6236 47.1428C15.6557 47.3449 12.7816 48.0958 10.4365 49.359C8.11269 50.6109 6.30743 52.372 5.45012 54.607C4.65258 56.686 4.67242 59.185 5.8456 62.0845C7.92342 61.483 10.4761 61.2987 13.3674 61.7301C16.3353 62.1718 19.6749 63.2668 23.2315 65.2367C23.7791 65.5412 23.8769 66.1032 23.4484 66.4933C23.0199 66.8824 22.2289 66.9519 21.68 66.6474C18.4542 64.8607 15.4703 63.8749 12.853 63.4847C9.9446 63.0514 7.51109 63.3625 5.73587 64.1238C5.14729 64.3766 4.63281 64.6773 4.19898 65.0157C3.25066 65.7553 2.67664 66.6811 2.55363 67.6746C2.42931 68.6831 2.7679 69.7667 3.65141 70.8063C4.12489 71.3645 4.75446 71.9097 5.55069 72.4247C6.87329 73.2819 7.86393 74.2076 7.97638 75.2143C8.09938 76.3101 7.25952 77.3431 4.86031 78.2322C3.98739 78.5555 3.33005 79.1448 2.94518 79.8261C2.6304 80.3835 2.5021 80.9935 2.58939 81.5696C2.67139 82.11 2.94254 82.6109 3.42926 82.9888C3.89086 83.3478 4.57332 83.6109 5.50576 83.7106C6.64586 83.8327 7.34552 83.9606 7.94997 84.5414C8.43273 85.0047 8.64699 85.6607 8.82553 86.8299C8.97631 87.8158 9.52387 88.7312 10.3809 89.4099C10.8756 89.8018 11.4774 90.1139 12.1665 90.3112C12.8529 90.5077 13.6345 90.5894 14.4969 90.5227C15.514 90.4438 16.6382 90.1609 17.8497 89.6214C14.6437 88.7671 12.0436 86.9541 10.1123 84.0659C9.81468 83.6185 10.0845 83.0837 10.714 82.8732C11.3436 82.6617 12.0962 82.8535 12.3924 83.3008C14.334 86.2049 17.0016 87.7999 20.3147 88.2584C23.7548 88.734 27.9686 88.0366 32.8544 86.344C33.4813 86.1269 34.2378 86.312 34.5434 86.7585C34.8489 87.2039 34.5884 87.7415 33.9601 87.9587C29.1261 89.6335 24.809 90.4116 21.0751 90.1485C18.8253 91.5 16.6826 92.158 14.7621 92.3064C13.4738 92.4061 12.2861 92.2783 11.2279 91.9756C10.1724 91.6739 9.25588 91.1993 8.50461 90.6044C7.29443 89.6457 6.52464 88.3732 6.31702 87.0206C6.18872 86.1851 6.08688 85.764 5.92554 85.6089C5.88586 85.5713 5.61208 85.5384 5.13063 85.4867C3.58846 85.3223 2.414 84.8495 1.57274 84.1973C0.699821 83.5187 0.217059 82.6606 0.0808449 81.7602C-0.0500944 80.8955 0.139043 79.9848 0.604611 79.1605C1.2011 78.1059 2.2592 77.1793 3.69556 76.6474C5.02083 76.1568 5.50092 75.731 5.4586 75.3551C5.40569 74.8898 4.74569 74.3297 3.85161 73.7517C2.86625 73.1135 2.08326 72.433 1.48809 71.7329C0.313593 70.3513 -0.134767 68.8916 0.0345275 67.5204C0.206467 66.1341 1.00797 64.8418 2.33192 63.8088C2.71152 63.5137 3.13211 63.2402 3.59107 62.9921C2.11238 59.5871 2.0661 56.6209 3.01838 54.1377C4.03151 51.4976 6.16621 49.4159 8.91322 47.9347C11.6391 46.4657 14.9642 45.5935 18.3846 45.3605C22.2161 45.0992 26.1776 45.6387 29.5607 47.0353L29.574 47.0193C30.7088 45.6622 32.5485 44.601 35.3605 44.1583C36.039 44.0521 36.7122 44.3566 36.8616 44.8388C37.0111 45.3209 36.5826 45.7993 35.9041 45.9055C33.8633 46.226 32.5446 46.9769 31.7472 47.9309C30.6984 49.1856 30.4841 50.8162 30.7076 52.3332C31.0674 54.7826 32.1559 55.9083 33.5169 56.3578C34.9281 56.823 36.8049 56.6454 38.4847 56.433C40.4791 56.1811 42.0808 56.3512 43.32 56.7948C44.1943 57.1087 44.8755 57.5523 45.378 58.0805C45.8674 58.5946 46.1822 59.1839 46.3369 59.8052C46.6358 60.9997 46.3343 62.3315 45.5407 63.4491C43.6335 66.1352 43.1441 68.4154 43.7036 70.155C44.0501 71.2367 44.8132 72.1061 45.8925 72.7246C46.9916 73.3543 48.4372 73.7359 50.1262 73.828C53.2568 73.9981 57.1719 73.1851 61.2956 71.1503C62.7267 70.4435 63.5282 69.9482 63.9646 69.483C64.3561 69.0648 64.4871 68.6033 64.577 67.9557C64.7952 66.3805 65.2463 65.4669 66.0861 64.9087C67.0133 64.2922 68.1348 64.2095 69.7059 64.2734C73.1396 64.4125 75.8811 64.2189 77.5981 63.3514C79.213 62.5347 79.9987 61.0074 79.6998 58.4142C79.5318 56.9509 78.9088 55.4416 77.7304 54.2347C76.9699 53.4556 75.9739 52.8014 74.7162 52.3719C73.4425 51.9368 71.8739 51.7253 69.9759 51.8353C66.6442 52.0289 62.3617 53.2065 56.9588 55.8702C56.3862 56.1512 55.6018 56.0487 55.2064 55.6418C54.8109 55.2348 54.9551 54.6775 55.5278 54.3965C61.3339 51.5345 66.0386 50.2629 69.7803 50.0459C72.1399 49.9087 74.1383 50.1887 75.8035 50.7583C77.4872 51.3325 78.8072 52.1953 79.8043 53.217C81.2552 54.7029 82.017 56.5243 82.2181 58.2745C82.3768 59.6551 82.2644 60.815 81.9072 61.783C86.1278 63.1495 89.7107 63.5865 92.5596 62.923C95.5328 62.2303 97.8155 60.2783 99.3114 56.8581C99.5164 56.3854 100.221 56.1194 100.887 56.2651C101.552 56.4108 101.926 56.9117 101.721 57.3844C100.332 60.5602 98.2743 62.6825 95.6134 63.8704C96.4321 64.767 97.3328 65.3441 98.2427 65.6683C98.9979 65.9371 99.773 66.0339 100.514 65.9964C101.26 65.9588 101.976 65.783 102.613 65.5114C103.451 65.1524 104.138 64.6336 104.553 64.0433C104.975 63.4446 104.955 62.9521 104.935 62.4691C104.909 61.8112 104.882 61.1645 105.46 60.2895C105.713 59.907 106.037 59.5452 106.402 59.2143C106.795 58.8572 107.235 58.5348 107.685 58.2594C108.415 57.813 109.083 57.4953 109.703 57.1993C110.622 56.7622 111.419 56.3835 111.995 55.7002C112.035 55.6541 112.065 55.6156 112.088 55.5846C112.609 54.8741 112.582 53.9774 112.166 53.1343C111.735 52.2621 110.895 51.4698 109.81 51.0074C109.723 50.9708 109.646 50.9398 109.58 50.9153C108.845 50.6428 108.254 50.3176 107.788 49.9548C106.857 49.2292 106.43 48.3674 106.381 47.4905C106.334 46.655 106.641 45.811 107.185 45.0696C107.584 44.5245 108.112 44.0329 108.719 43.6391C110.769 42.3111 111.538 40.8327 111.309 39.4567C111.157 38.5385 110.568 37.6503 109.628 36.8673C108.644 36.0478 107.285 35.3457 105.637 34.8401C102.209 33.7874 97.5696 33.5873 92.4484 34.9247C91.2885 35.4613 89.9698 35.8373 88.5601 36.0666C86.3315 36.4284 83.8807 36.4096 81.5093 36.0656C79.1457 35.7226 76.851 35.0553 74.9227 34.1192C70.9284 32.1803 68.4709 29.1135 70.0264 25.3682C70.9694 23.0966 72.6478 21.3569 74.6501 20.1849C76.3338 19.199 78.2463 18.6135 80.1536 18.4471C82.1031 18.277 84.0473 18.5402 85.7508 19.2573C87.326 19.9199 88.679 20.9678 89.6141 22.4142C89.9037 22.8635 89.6247 23.3945 88.9925 23.6003C88.3603 23.8062 87.613 23.6079 87.3233 23.1586C86.6171 22.0674 85.6185 21.2864 84.4665 20.8024C83.2589 20.2939 81.8662 20.1078 80.4589 20.231C79.0107 20.3578 77.5492 20.808 76.2489 21.5684C74.6155 22.5242 73.236 23.9678 72.4452 25.8747C71.2562 28.7383 73.2031 31.1153 76.3444 32.6397C77.999 33.4423 79.9751 34.0166 82.0117 34.3117C84.0406 34.6059 86.1212 34.6247 87.9966 34.3202C88.1209 34.2995 88.2453 34.2779 88.3683 34.2544C89.3126 33.9076 90.249 33.6087 91.1736 33.3549C92.9485 32.4837 94.201 31.104 94.4735 29.1312C94.8332 26.5353 95.7366 26.3361 98.1292 25.8087C98.9201 25.6348 99.9386 25.4102 101.239 24.944C101.544 24.834 101.83 24.7165 102.094 24.5916C103.443 23.9534 104.191 23.1197 104.363 22.1244C104.551 21.0398 104.1 19.7344 103.044 18.2485C102.646 17.6884 102.162 17.1029 101.592 16.4938C98.4771 13.1677 94.6521 11.067 89.8722 10.6563C87.5695 10.4589 85.0263 10.645 82.2143 11.2634C82.18 11.2719 82.1456 11.2794 82.1112 11.2869C78.9779 11.9871 75.51 13.2221 71.6691 15.0622C71.0911 15.3395 70.3068 15.2314 69.9166 14.8198C69.5265 14.4091 69.6786 13.8517 70.2579 13.5745C71.4932 12.9824 72.6954 12.4494 73.8658 11.9729C72.4969 11.6891 71.2246 11.051 69.9138 9.87708C69.4284 9.44193 68.8571 9.11485 68.2301 8.88365C67.0385 8.44475 65.6272 8.34042 64.2185 8.50677C62.7663 8.67783 61.326 9.13554 60.1263 9.81224C59.2375 10.3132 58.4889 10.9297 57.9771 11.6318C57.0473 12.9053 56.8608 13.8348 56.7193 14.5332C56.341 16.4073 56.1942 17.1339 50.4963 17.8049C47.2546 18.1865 45.407 19.2373 44.6743 20.4554C44.3476 20.9987 44.2378 21.5804 44.3198 22.15C44.4045 22.7308 44.6862 23.2994 45.1412 23.807C46.1728 24.9573 48.0959 25.7957 50.6419 25.7656C53.5636 25.634 56.7856 26.01 60.2057 26.6951C60.8763 26.8286 61.2677 27.3239 61.0799 27.8004C60.8921 28.2769 60.1951 28.5551 59.5245 28.4217C54.7524 27.4649 50.4778 27.1529 47.1223 28.1209C44.0975 28.9931 41.734 30.9622 40.3082 34.5308C44.3899 34.9838 49.1275 34.8532 53.8149 33.0308C54.4259 32.7939 55.1904 32.9547 55.5237 33.3889C55.857 33.8231 55.6309 34.3663 55.0198 34.6032C45.4851 38.308 36.0998 35.8457 31.1242 34.5393C29.951 34.231 29.0464 33.9942 28.6073 33.9537C25.0494 33.6276 22.3488 35.0224 20.9375 36.7818C20.1559 37.7574 19.771 38.8335 19.8556 39.7828C19.931 40.6278 20.3913 41.3599 21.296 41.7763C22.731 42.437 25.3089 42.4163 29.307 41.0996C32.2657 40.1249 34.9083 39.8138 37.3234 40.0977C39.7676 40.3843 41.9235 41.2706 43.8877 42.687C44.6587 43.2425 45.1838 43.7359 45.6692 44.1927C46.521 44.9925 47.2325 45.6608 49.0366 46.1927C51.9318 47.0461 56.1073 47.2049 59.906 46.4183C61.6465 46.0574 63.2973 45.4982 64.6872 44.7162C66.0482 43.9512 67.1684 42.9643 67.8879 41.7322C68.9791 39.8629 69.1537 37.4127 67.8707 34.2858C67.6776 33.8112 68.0612 33.3149 68.7304 33.1768C69.3984 33.0396 70.0967 33.3121 70.2911 33.7877C71.7513 37.3469 71.5185 40.1966 70.2197 42.4203C69.3283 43.9466 67.9395 45.1694 66.2491 46.1196C64.5892 47.0528 62.6448 47.7154 60.6082 48.1374C56.2634 49.0378 51.4426 48.8433 48.0699 47.8489C45.6323 47.1308 44.7329 46.285 43.6564 45.2737C43.212 44.8564 42.7318 44.4053 42.0917 43.9438C40.5046 42.7991 38.8037 42.0886 36.9204 41.8677C35.0079 41.6431 32.8496 41.9119 30.3657 42.7295C25.4602 44.3451 22.0398 44.2521 19.9249 43.2794C18.2889 42.5265 17.4636 41.2906 17.3392 39.8967C17.2242 38.6082 17.7241 37.175 18.7465 35.8996C20.6048 33.5819 24.1849 31.7463 28.9241 32.1806C29.6794 32.2501 30.6872 32.5142 31.9952 32.8573C33.5361 33.2614 35.5332 33.7859 37.8268 34.1806C39.4073 30.1214 42.1265 27.7745 45.6607 26.6194C44.5629 26.1373 43.6715 25.4982 43.0194 24.7717C42.3515 24.0263 41.9375 23.1899 41.8132 22.3355C41.6876 21.4709 41.8555 20.5865 42.3542 19.7565C43.4004 18.0168 45.8725 16.5365 50.0916 16.0394C53.959 15.5836 54.0331 15.2208 54.2207 14.2838C54.3874 13.4577 54.6096 12.3571 55.7351 10.8148C56.4202 9.87587 57.4016 9.0629 58.5563 8.4125C60.0865 7.54972 61.9369 6.96419 63.8135 6.74238C65.734 6.51587 67.69 6.67001 69.3857 7.29408C70.3234 7.63995 71.1752 8.12491 71.8881 8.76402C74.2939 10.9191 76.8691 10.4295 81.1915 9.60801L81.4587 9.55726L81.464 9.55632C84.6329 8.85801 87.524 8.6503 90.1694 8.87774C95.7639 9.35801 100.171 11.7424 103.697 15.5076C104.319 16.1711 104.853 16.8168 105.299 17.4446C106.586 19.2548 107.123 20.9042 106.874 22.345C106.609 23.876 105.496 25.141 103.491 26.0892C103.15 26.2509 102.778 26.4031 102.378 26.5469C100.897 27.0789 99.7583 27.3298 98.8747 27.5244C97.646 27.7951 97.1831 27.8975 96.9873 29.3101C96.8194 30.5254 96.3657 31.5686 95.6912 32.4502C99.8626 31.9154 103.64 32.2811 106.64 33.2021C108.653 33.8205 110.325 34.688 111.548 35.7068C112.815 36.7613 113.61 37.9775 113.822 39.2509C114.143 41.1832 113.138 43.2114 110.422 44.97C110.024 45.2275 109.68 45.548 109.421 45.9023C109.072 46.3779 108.874 46.9099 108.903 47.4249C108.929 47.8986 109.158 48.3629 109.658 48.752C109.936 48.9691 110.296 49.1655 110.749 49.3337C110.883 49.3826 111.002 49.4306 111.108 49.4757C112.705 50.1571 113.933 51.3009 114.549 52.5498C115.181 53.829 115.187 55.2398 114.323 56.4173C114.266 56.4953 114.212 56.5649 114.162 56.6241C113.293 57.6532 112.279 58.1353 111.109 58.6918C110.551 58.9568 109.95 59.2425 109.338 59.6185C109.001 59.8252 108.675 60.063 108.391 60.3206C108.136 60.5527 107.912 60.7999 107.746 61.0518C107.421 61.5414 107.439 61.9794 107.457 62.424C107.486 63.1279 107.515 63.8441 106.808 64.8468C106.176 65.7435 105.155 66.5226 103.919 67.0517C102.955 67.4643 101.855 67.7303 100.695 67.7895C99.5308 67.8487 98.3113 67.6965 97.1195 67.2726C95.7466 66.7839 94.4293 65.938 93.3104 64.6402C89.8426 65.439 85.683 64.9729 80.9173 63.4381C80.4227 63.9879 79.801 64.4428 79.063 64.8159C76.8 65.9597 73.541 66.2295 69.572 66.0678C68.666 66.0312 68.0722 66.0434 67.8077 66.2191C67.4572 66.4522 67.2429 67.0274 67.0882 68.1364C66.9585 69.0669 66.7483 69.7549 66.0698 70.4776C65.4362 71.1525 64.439 71.7906 62.7394 72.629C62.2725 72.8592 61.807 73.0754 61.3427 73.2784C61.3758 73.3376 61.4009 73.3996 61.4168 73.4645C63.4576 81.9354 57.9977 84.2757 52.2194 86.753C47.5638 88.7493 42.6715 90.8461 42.3857 97.1422C42.3646 97.6366 41.7826 98.0248 41.0869 98.0088C40.3912 97.9938 39.845 97.5802 39.8675 97.0859C40.1994 89.8115 45.6895 87.4569 50.9166 85.2164C55.838 83.1065 60.4923 81.1103 59.0228 74.1862C55.7348 75.3235 52.6174 75.7671 49.9405 75.6214C47.7344 75.5011 45.8127 74.9842 44.3141 74.1251C42.7945 73.2548 41.7245 72.0452 41.2457 70.5526C40.5645 68.4295 41.1002 65.7312 43.2905 62.6467C43.8446 61.8666 44.0562 60.9427 43.8499 60.1184C43.7547 59.7397 43.5695 59.3872 43.2865 59.0883C43.0167 58.8045 42.6516 58.5658 42.1861 58.3994C41.415 58.1231 40.3423 58.0263 38.9218 58.2058C36.8639 58.4661 34.5334 58.6729 32.4622 57.9896C30.3408 57.2894 28.6741 55.7331 28.2021 52.5198C28.0169 51.2641 28.0923 49.9285 28.583 48.6918L28.5816 48.6879ZM99.3806 83.4093C98.8304 83.712 98.0382 83.6396 97.6123 83.2477C97.1864 82.8567 97.2882 82.2937 97.8397 81.9911C100.595 80.4732 101.589 78.3859 101.288 76.4911C101.152 75.6377 100.752 74.822 100.133 74.1161C99.5209 73.4188 98.6996 72.8323 97.7116 72.4272C95.7025 71.6048 92.9476 71.5137 89.7706 72.7252C89.157 72.9592 88.3925 72.7966 88.0618 72.3605C87.7325 71.9244 87.9613 71.3812 88.575 71.1462C92.6249 69.602 96.2488 69.7637 98.9656 70.8765C100.332 71.4357 101.453 72.2308 102.276 73.1687C103.091 74.0983 103.617 75.1706 103.796 76.2947C104.189 78.758 102.916 81.4611 99.3809 83.4083L99.3806 83.4093ZM50.424 91.5749C50.1766 91.8296 49.6859 91.8935 49.3288 91.7178C48.9704 91.542 48.8805 91.1933 49.1278 90.9396C50.9781 89.0326 53.4685 88.0815 55.905 87.152C58.906 86.0063 61.8185 84.8945 62.9676 81.9415C63.084 81.6436 63.5178 81.4688 63.9371 81.5515C64.3564 81.6342 64.6024 81.9424 64.486 82.2404C63.1568 85.6567 59.9533 86.8794 56.6521 88.14C54.3798 89.0075 52.0574 89.8937 50.4251 91.577L50.424 91.5749Z" fill="white"/>
</svg>
