<svg width="103" height="103" viewBox="0 0 103 103" fill="none" xmlns="http://www.w3.org/2000/svg">
<path d="M85.6809 13.929L51.7926 51.7214L97.5726 29.7922L51.8012 51.7395L102.488 48.9985L51.8022 51.7592L99.68 68.624L51.7957 51.7781L89.575 85.681L51.7826 51.7927L73.7117 97.5726L51.7645 51.8012L54.5054 102.488L51.7448 51.8023L34.88 99.6801L51.7259 51.7958L17.823 89.575L51.7112 51.7827L5.93134 73.7118L51.7027 51.7646L1.01568 54.5055L51.7016 51.7449L3.82388 34.88L51.7082 51.726L13.9289 17.823L51.7213 51.7113L29.7921 5.93138L51.7394 51.7028L48.9984 1.0157L51.7591 51.7017L68.6239 3.82395L51.778 51.7082L85.6809 13.929Z" stroke="white"/>
</svg>
