<svg width="1920" height="1920" viewBox="0 0 1920 1920" fill="none" xmlns="http://www.w3.org/2000/svg">
<path d="M69.9192 1593.17L35.6048 1533.74L0.535266 1473L0 1472.08L0 1482.34L30.405 1535L0 1587.66L0 1597.92L33.3681 1540.13L65.4745 1595.73L0 1709.13L0 1719.78H204.261L172.155 1775.38H0L0 1780.52H31.8866L112.415 1920H118.342L37.8127 1780.52H102.016L182.554 1920H188.481L107.952 1780.52H172.155L252.684 1920H258.61L252.33 1909.12L246.729 1899.43L348.965 1722.35L381.071 1777.95L299.061 1920H304.987L315.387 1901.99H519.858L509.459 1920H515.385L594.432 1783.09L626.539 1838.69L579.598 1920H585.524L629.502 1843.82L661.608 1899.42L649.727 1919.99H655.653L664.571 1904.55L673.489 1919.99H679.415L666.808 1898.15L631.738 1837.42L598.886 1780.52H663.09L743.628 1920H749.554L669.025 1780.52H733.229L813.767 1920H819.693L739.164 1780.52H803.368L883.906 1920H889.832L883.553 1909.12L877.951 1899.43L980.187 1722.35L1012.29 1777.95L930.283 1920H936.209L946.609 1901.99H1151.08L1140.68 1920H1146.61L1225.65 1783.09L1257.76 1838.69L1210.82 1920H1216.75L1260.72 1843.82L1292.83 1899.42L1280.95 1919.99H1286.88L1295.79 1904.55L1304.71 1919.99H1310.64L1298.03 1898.15L1262.96 1837.42L1230.11 1780.52H1294.31L1374.84 1920H1380.77L1300.24 1780.52H1364.44L1444.97 1920H1450.9L1370.37 1780.52H1434.57L1515.12 1920H1521.05L1509.16 1899.42L1611.4 1722.34L1643.51 1777.94L1561.5 1919.99H1567.42L1577.82 1901.98H1782.29L1771.89 1919.99H1777.82L1856.87 1783.08L1888.97 1838.68L1842.03 1919.99H1847.96L1891.94 1843.81L1920.1 1892.58V1882.31L1894.17 1837.42L1894.16 1837.41L1861.31 1780.51H1920.09V1775.37H1861.31L1893.42 1719.77H1920.1V1714.64H1896.38L1920.1 1673.58V1663.31L1856.88 1772.82L1824.77 1717.22L1920.1 1552.11V1541.84L1821.81 1712.09L1789.7 1656.49L1891.94 1479.41L1920.1 1528.18V1517.91L1894.17 1473.01C1894.17 1473.01 1894.17 1473 1894.16 1473L1861.31 1416.1H1920.09V1410.97H1861.31L1893.42 1355.37H1920.1V1350.24H1896.38L1920.1 1309.18V1298.91L1856.88 1408.41L1824.77 1352.81L1920.1 1187.7V1177.43L1821.81 1347.68L1789.7 1292.08L1891.94 1114.99L1920.1 1163.75V1153.49L1894.17 1108.59L1894.16 1108.58L1861.31 1051.68H1920.09V1046.55H1861.31L1893.42 990.95H1920.1V985.817H1896.38L1920.1 944.754V934.489L1856.88 1043.99L1824.77 988.388L1920.1 823.278V813.012L1821.81 983.255L1789.7 927.655L1891.94 750.577L1920.1 799.344V789.078L1894.17 744.182C1894.17 744.182 1894.17 744.173 1894.16 744.173L1861.31 687.272H1920.09V682.14H1861.31L1893.42 626.539H1920.1V621.406H1896.38L1920.1 580.343V570.078L1856.88 679.578L1824.77 623.977L1920.1 458.866V448.601L1821.81 618.844L1789.7 563.243L1891.94 386.166L1920.1 434.932V424.667L1894.17 379.771C1894.17 379.771 1894.17 379.762 1894.16 379.762L1861.31 322.861H1920.09V317.728H1861.31L1893.42 262.127H1920.1V256.995H1896.38L1920.1 215.932V205.667L1856.88 315.167L1824.77 259.566L1920.1 94.4553V84.1897L1821.81 254.433L1789.7 198.832L1891.94 21.7548L1920.1 70.5214L1920.1 60.2557L1894.17 15.3601C1894.17 15.3601 1894.17 15.3506 1894.16 15.3506L1885.3 0H1879.38L1888.97 16.6315L1786.74 193.709L1754.63 138.108L1834.37 0.00952148H1828.44L1820.33 14.0698H1615.85L1623.97 0.00952148H1618.04L1541.27 132.975L1509.16 77.3745L1553.83 0.00952148H1547.9L1506.2 72.2417L1474.09 16.641L1483.69 0.019043H1477.76L1471.13 11.5082L1464.5 0.019043H1458.57L1536.83 135.556H1472.62L1394.37 0.019043H1388.44L1466.7 135.556H1402.49L1324.24 0.019043H1318.31L1396.57 135.556H1332.36L1298.05 76.1224L1262.98 15.3888L1254.11 0.0286865H1248.18L1257.78 16.6506L1155.54 193.728L1123.44 138.127L1203.17 0.0286865H1197.25L1194.33 5.08496L1189.13 14.089H984.661L992.776 0.0286865H986.849L910.077 132.995L883.17 86.3977L877.97 77.3937L922.636 0.0286865H916.71L875.007 72.2609L842.901 16.66L852.497 0.038208H846.571L839.938 11.5272L833.304 0.038208H827.378L905.632 135.575H841.429L763.175 0.038208H757.249L835.503 135.575H771.3L693.046 0.038208H687.119L765.373 135.575H701.132L666.818 76.1416L631.748 15.408L622.878 0.0478516H616.952L626.548 16.6697L524.312 193.747L492.206 138.146L571.942 0.0478516H566.015L563.1 5.10413L557.9 14.108H353.419L361.534 0.0478516H355.608L278.835 133.014L251.929 86.4169L246.729 77.4128L291.395 0.0478516H285.469L243.766 72.28L211.66 16.6792L221.256 0.057251H215.33L208.696 11.5464L202.063 0.057251H196.137L274.391 135.594H210.188L131.934 0.057251H126.007L204.261 135.594H140.058L61.8041 0.057251H55.878L134.132 135.594H69.9192L35.6048 76.1606L0.535266 15.4271L0 14.5L0 24.7656L30.405 77.4224L0 129.936L0 140.201L33.3681 82.4119L65.4745 138.013L0 251.413L0 262.061H204.261L172.155 317.661H0L0 322.794H31.8866L134.122 499.881H69.9192L35.6048 440.448L0.535266 379.714L0 378.787L0 389.052L30.405 441.709L0 494.366L0 504.632L33.3681 446.842L65.4745 502.443L0 615.843L0 626.491H204.261L172.155 682.092H0L0 687.224H31.8866L134.122 864.302H69.9192L35.6048 804.868L0.535266 744.135L0 743.208L0 753.473L30.405 806.13L0 858.787L0 869.052L33.3681 811.263L65.4745 866.864L0 980.273L0 990.921H204.261L172.155 1046.52H0L0 1051.65H31.8866L134.122 1228.74H69.9192L35.6048 1169.31L0.535266 1108.57L0 1107.65L0 1117.91L30.405 1170.57L0 1223.23L0 1233.49L33.3681 1175.7L65.4745 1231.3L0 1344.7L0 1355.35H204.261L172.155 1410.95H0L0 1416.09H31.8866L134.122 1593.17H69.9192ZM1613.64 1715.95L1578.57 1655.21L1545.72 1598.3H1609.92L1712.15 1775.37H1647.95L1613.64 1715.95ZM1189.11 1836.13H984.641L1016.75 1780.52H1221.23L1194.72 1826.43L1189.11 1836.13ZM982.424 1715.95L947.354 1655.21L914.502 1598.3H978.706L1080.94 1775.38H1016.74L982.424 1715.95ZM557.9 1836.13H353.419L385.526 1780.52H590.007L563.502 1826.43L557.9 1836.13ZM351.211 1715.95L316.142 1655.21L283.29 1598.3H347.493L449.729 1775.38H385.526L351.211 1715.95ZM316.142 1290.78L283.29 1233.87H347.493L449.729 1410.95H385.526L351.211 1351.52L316.142 1290.78ZM316.142 926.345L283.29 869.444H347.493L449.729 1046.52H385.526L351.211 987.088L316.142 926.345ZM316.142 561.915L283.29 505.014H347.493L449.729 682.092H385.526L351.211 622.658L316.142 561.915ZM316.142 197.484L283.29 140.574H347.493L449.729 317.661H385.526L351.211 258.228L316.142 197.484ZM1750.19 140.574L1852.43 317.661H1788.23L1685.99 140.584H1750.19V140.574ZM252.34 1544.69L246.739 1535L348.974 1357.92L381.081 1413.52L278.845 1590.6L252.34 1544.69ZM252.34 1180.26L246.739 1170.57L348.974 993.492L381.081 1049.09L278.845 1226.17L252.34 1180.26ZM252.741 816.53L246.739 806.13L348.974 629.052L381.081 684.653L278.845 861.74L252.741 816.53ZM251.938 450.713L246.739 441.709L348.974 264.632L381.081 320.233L278.845 497.31L251.938 450.713ZM417.632 140.574L519.868 317.661H455.665L353.429 140.584H417.632V140.574ZM977.224 259.489L874.988 436.567L842.882 380.966L945.118 203.889L977.224 259.489ZM1048.84 140.574L1151.08 317.652H1086.88L984.641 140.574H1048.84ZM1573.38 198.746L1471.14 375.833L1439.03 320.223L1541.27 143.146L1573.38 198.746ZM1608.44 259.489L1506.2 436.567L1474.09 380.966L1576.33 203.879L1608.44 259.489ZM1680.06 140.574L1782.29 317.652H1718.09L1615.85 140.574H1680.06ZM1643.51 320.223L1541.27 497.31L1509.16 441.709L1611.4 264.632L1643.51 320.223ZM1541.27 861.74L1509.16 806.14L1611.4 629.062L1643.51 684.663L1541.27 861.74ZM1541.27 1226.17L1509.16 1170.57L1611.4 993.492L1643.51 1049.09L1541.27 1226.17ZM1541.27 1590.6L1509.16 1535L1611.4 1357.92L1643.51 1413.52L1541.27 1590.6ZM1332.34 1598.3H1536.82L1504.71 1653.91H1300.25L1332.34 1598.3ZM1573.38 563.177L1471.14 740.264L1439.03 684.653L1541.27 507.576L1573.38 563.177ZM1608.44 623.92L1506.2 800.997L1474.09 745.396L1576.33 568.309L1608.44 623.92ZM1573.38 927.607L1471.13 1104.69L1439.03 1049.09L1541.26 872.016L1573.38 927.607ZM1608.44 988.35L1506.2 1165.43L1474.09 1109.83L1576.33 932.74L1608.44 988.35ZM1573.38 1292.05L1471.14 1469.13L1439.03 1413.53L1541.27 1236.46L1573.38 1292.05ZM1608.44 1352.78L1506.2 1529.86L1474.09 1474.26L1576.33 1297.17L1608.44 1352.78ZM1257.77 1474.26L1155.53 1651.33L1123.43 1595.73L1225.66 1418.66L1257.77 1474.26ZM771.271 1593.17L669.035 1416.09H733.238L835.474 1593.17H771.271ZM626.548 1474.26L524.312 1651.34L492.206 1595.74L594.442 1418.67L626.548 1474.26ZM661.618 441.7L559.382 618.787L527.275 563.186L629.511 386.109L661.618 441.7ZM733.238 322.794L835.474 499.881H771.271L669.035 322.794H733.238ZM1292.83 441.7L1190.59 618.777L1158.49 563.177L1260.72 386.099L1292.83 441.7ZM1364.45 322.794L1466.69 499.881H1402.48L1300.25 322.794H1364.45ZM1189.11 1471.7H984.641L1016.75 1416.09H1221.23L1194.72 1462L1189.11 1471.7ZM1332.34 505.005H1536.82L1504.71 560.605H1300.25L1332.34 505.005ZM1501.76 565.748L1469.65 621.348H1265.18L1297.28 565.748H1501.76ZM1466.69 626.481L1434.58 682.082H1230.11L1262.22 626.481H1466.69ZM1434.58 687.224L1536.82 864.302H1472.61L1370.38 687.224H1434.58ZM1434.58 1051.65L1536.82 1228.73H1472.61L1370.38 1051.65H1434.58ZM942.155 1292.05L839.919 1469.12L807.812 1413.52L883.543 1282.35L910.048 1236.45L942.155 1292.05ZM666.062 1294.61H870.544L838.437 1350.21H633.966L666.062 1294.61ZM661.618 1170.57L559.382 1347.65L527.275 1292.05L629.511 1114.97L661.618 1170.57ZM666.818 1169.3L631.748 1108.56L598.896 1051.65H663.099L765.345 1228.74H701.132L666.818 1169.3ZM661.618 806.13L559.382 983.217L527.275 927.616L629.511 750.539L661.618 806.13ZM666.818 804.868L631.748 744.125L598.896 687.215H663.099L765.345 864.302H701.132L666.818 804.868ZM910.058 507.576L942.164 563.177L839.919 740.264L807.812 684.663L883.151 554.182L910.058 507.576ZM977.224 623.92L874.988 800.997L842.882 745.396L945.118 568.319L977.224 623.92ZM1048.84 505.005L1151.08 682.082H1086.88L984.641 505.005H1048.84ZM1225.66 1043.95L1193.56 988.35L1295.79 811.272L1327.9 866.873L1225.66 1043.95ZM1402.48 1228.74L1300.25 1051.66H1364.45L1466.69 1228.74H1402.48ZM1294.31 1051.65L1396.55 1228.73H1332.34L1298.03 1169.3L1262.96 1108.57L1230.11 1051.66H1294.31V1051.65ZM1257.77 745.396L1155.53 922.474L1123.43 866.873L1225.66 689.796L1257.77 745.396ZM1292.83 806.13L1190.59 983.208L1158.49 927.607L1260.72 750.529L1292.83 806.13ZM1257.77 1109.83L1155.53 1286.9L1123.43 1231.3L1225.66 1054.23L1257.77 1109.83ZM841.4 1228.74L739.164 1051.66H803.368L905.613 1228.74H841.4ZM947.354 926.345L914.502 869.444H978.706L1080.94 1046.52H1016.74L982.424 987.088L947.354 926.345ZM1189.11 1107.26H984.641L1016.75 1051.65H1221.23L1194.72 1097.56L1189.11 1107.26ZM1048.84 869.444L1151.08 1046.52H1086.88L984.641 869.444H1048.84ZM1157.01 1046.52L1054.77 869.444H1118.97L1221.21 1046.52H1157.01ZM977.224 988.35L874.988 1165.43L842.882 1109.83L945.118 932.749L977.224 988.35ZM883.553 1180.26L877.951 1170.57L980.187 993.492L1012.29 1049.09L910.058 1226.17L883.553 1180.26ZM981.669 1112.4H1186.14L1154.03 1168H949.572L981.669 1112.4ZM1221.22 687.224L1195.12 732.435L1189.11 742.835H984.641L1016.75 687.234H1221.22V687.224ZM1186.15 747.968L1154.04 803.568H949.572L981.678 747.968H1186.15ZM1151.08 808.701L1118.97 864.302H914.502L946.609 808.701H1151.08ZM803.368 687.224L905.613 864.302H841.41L739.174 687.224H803.368ZM733.238 687.224L835.474 864.302H771.271L669.035 687.224H733.238ZM910.058 872.006L942.164 927.607L839.919 1104.69L807.812 1049.09L883.151 918.612L910.058 872.006ZM733.238 1051.65L835.474 1228.74H771.271L669.035 1051.66H733.238V1051.65ZM946.609 1173.13H1151.08L1118.97 1228.73H914.502L946.609 1173.13ZM1158.49 1292.05L1260.72 1114.97L1292.83 1170.57L1190.59 1347.65L1158.49 1292.05ZM1402.48 864.302L1300.25 687.224H1364.45L1466.69 864.302H1402.48ZM1294.31 687.224L1396.55 864.302H1332.34L1298.03 804.868L1262.96 744.135L1230.11 687.224H1294.31ZM1012.29 684.653L910.058 861.731L883.954 816.52L877.951 806.12L980.187 629.043L1012.29 684.653ZM905.613 869.444L878.706 916.041L873.507 925.045H669.025L701.132 869.444H905.613ZM870.544 930.178L838.437 985.779H633.966L666.072 930.178H870.544ZM835.474 990.921L803.368 1046.52H598.896L631.002 990.921H835.474ZM905.613 1233.87L879.108 1279.78L873.507 1289.48H669.025L701.132 1233.87H905.613ZM1048.84 1233.87L1151.08 1410.95H1086.88L984.641 1233.87H1048.84ZM1157.01 1410.95L1054.77 1233.87H1118.97L1221.21 1410.95H1157.01ZM1193.56 1352.78L1295.79 1175.7L1327.9 1231.3L1225.66 1408.38L1193.56 1352.78ZM1297.28 1294.61H1501.75L1469.64 1350.21H1265.17L1297.28 1294.61ZM1300.25 1289.48L1332.35 1233.87H1536.83L1504.72 1289.48H1300.25ZM1230.11 1046.52L1262.22 990.921H1466.69L1434.58 1046.52H1230.11ZM1265.18 985.788L1297.28 930.188H1501.76L1469.65 985.788H1265.18ZM1300.25 925.045L1332.35 869.444H1536.83L1504.72 925.045H1300.25ZM1118.97 505.005L1221.21 682.082H1157.01L1054.77 505.005H1118.97ZM978.706 505.005L1080.94 682.082H1016.74L982.424 622.648L947.354 561.915L914.502 505.014H978.706V505.005ZM905.613 505.005L878.706 551.601L873.507 560.605H669.025L701.132 505.005H905.613ZM870.544 565.748L838.437 621.348H633.966L666.072 565.748H870.544ZM835.474 626.481L803.368 682.082H598.896L631.002 626.481H835.474ZM626.548 745.396L524.312 922.474L492.206 866.873L594.442 689.796L626.548 745.396ZM562.345 988.35L664.581 811.272L696.687 866.873L594.451 1043.95L562.345 988.35ZM626.548 1109.83L524.312 1286.9L492.206 1231.3L594.451 1054.23L626.548 1109.83ZM562.345 1352.78L664.581 1175.7L696.687 1231.3L594.451 1408.39L562.345 1352.78ZM598.896 1410.95L631.002 1355.35H835.484L803.377 1410.95H598.896ZM842.882 1474.26L945.118 1297.18L977.224 1352.78L874.988 1529.87L842.882 1474.26ZM982.424 1351.52L947.354 1290.78L914.502 1233.87H978.706L1080.94 1410.95H1016.74L982.424 1351.52ZM1262.22 1355.35H1466.69L1434.58 1410.95H1230.11L1262.22 1355.35ZM1327.9 502.443L1225.66 679.521L1193.56 623.92L1295.79 446.842L1327.9 502.443ZM696.687 502.443L594.451 679.521L562.345 623.92L664.581 446.842L696.687 502.443ZM883.553 1544.69L877.951 1535L980.187 1357.92L1012.29 1413.52L910.058 1590.6L883.553 1544.69ZM981.669 1476.83H1186.15L1154.04 1532.43H949.572L981.669 1476.83ZM1364.45 1416.09L1466.69 1593.16H1402.48L1300.25 1416.09H1364.45ZM1472.61 1593.17L1370.38 1416.09H1434.58L1536.82 1593.17H1472.61ZM1536.83 499.872H1472.62L1370.39 322.785H1434.59L1536.83 499.872ZM1294.31 322.794L1396.55 499.881H1332.34L1298.03 440.448L1262.96 379.714L1230.11 322.804H1294.31V322.794ZM1257.77 380.966L1155.53 558.044L1123.43 502.443L1225.66 325.356L1257.77 380.966ZM1154.04 439.138H949.572L981.678 383.537H1186.16L1154.04 439.138ZM1151.08 444.271L1118.97 499.872H914.502L946.609 444.271H1151.08ZM905.613 499.872H841.41L739.174 322.785H803.377L905.613 499.872ZM663.099 322.794L765.335 499.881H701.132L666.818 440.448L631.748 379.714L598.896 322.804H663.099V322.794ZM626.548 380.966L524.312 558.044L492.206 502.443L594.442 325.356L626.548 380.966ZM522.831 439.138H318.359L350.466 383.537H554.937L522.831 439.138ZM519.868 444.271L487.761 499.872H283.29L315.396 444.271H519.868ZM487.761 505.005L589.997 682.082H525.794L423.558 505.005H487.761ZM590.007 687.224L563.903 732.435L557.9 742.835H353.419L385.526 687.234H590.007V687.224ZM554.937 747.968L522.831 803.568H318.359L350.466 747.968H554.937ZM519.868 808.701L487.761 864.302H283.29L315.396 808.701H519.868ZM487.761 869.444L590.007 1046.52H525.803L423.568 869.444H487.761ZM590.007 1051.65L563.502 1097.56L557.9 1107.26H353.419L385.526 1051.65H590.007ZM554.937 1112.4L522.831 1168H318.359L350.466 1112.4H554.937ZM519.868 1173.13L487.761 1228.73H283.29L315.396 1173.13H519.868ZM487.761 1233.87L590.007 1410.95H525.803L423.558 1233.87H487.761ZM590.007 1416.09L563.502 1461.99L557.9 1471.69H353.419L385.526 1416.09H590.007ZM554.937 1476.83L522.831 1532.43H318.359L350.466 1476.83H554.937ZM519.868 1537.56L487.761 1593.16H283.29L315.396 1537.56H519.868ZM527.275 1656.48L629.511 1479.4L661.618 1535L559.382 1712.08L527.275 1656.48ZM666.818 1533.73L631.748 1473L598.896 1416.09H663.099L765.345 1593.17H701.132L666.818 1533.73ZM841.4 1593.17L739.164 1416.09H803.368L905.613 1593.17H841.4ZM946.609 1537.56H1151.08L1118.97 1593.16H914.502L946.609 1537.56ZM1158.49 1656.48L1260.72 1479.4L1292.83 1535L1190.59 1712.08L1158.49 1656.48ZM1298.03 1533.73L1262.96 1473L1230.11 1416.09H1294.31L1396.55 1593.16H1332.34L1298.03 1533.73ZM1545.72 1593.17L1577.82 1537.57H1782.29L1750.19 1593.17H1545.72ZM1647.95 1410.95L1613.64 1351.52C1613.64 1351.52 1613.64 1351.52 1613.64 1351.51L1578.57 1290.78L1545.72 1233.87H1609.92L1712.15 1410.95H1647.95ZM1718.09 1410.95L1615.85 1233.87H1680.06L1782.29 1410.95H1718.09ZM1545.72 1228.74L1577.82 1173.14H1782.29L1750.19 1228.74H1545.72ZM1647.95 1046.52L1613.64 987.088C1613.64 987.088 1613.64 987.088 1613.64 987.079L1578.57 926.345L1545.72 869.444H1609.92L1712.15 1046.52H1647.95ZM1718.09 1046.52L1615.85 869.444H1680.06L1782.29 1046.52H1718.09ZM1545.72 864.302L1577.82 808.701H1782.29L1750.19 864.302H1545.72ZM1647.95 682.092L1613.64 622.658C1613.64 622.658 1613.64 622.658 1613.64 622.648L1578.57 561.915L1545.72 505.005H1609.92L1712.15 682.082H1647.95V682.092ZM1718.09 682.092L1615.85 505.014H1680.06L1782.29 682.092H1718.09ZM1545.72 499.872L1577.82 444.271H1782.29L1750.19 499.872H1545.72ZM1189.11 378.395H984.641L1016.75 322.794H1221.23L1194.32 369.391L1189.11 378.395ZM1012.29 320.223L910.058 497.31L883.151 450.713L877.951 441.709L980.187 264.632L1012.29 320.223ZM557.9 378.395H353.419L385.526 322.794H590.007L563.1 369.391L557.9 378.395ZM417.632 505.005L519.868 682.082H455.665L353.429 505.005H417.632ZM417.632 869.444L519.868 1046.52H455.665L353.429 869.444H417.632ZM417.632 1233.87L519.868 1410.95H455.665L353.429 1233.87H417.632ZM417.632 1598.3L519.868 1775.38H455.665L353.429 1598.3H417.632ZM525.794 1775.38L423.558 1598.3H487.761L590.007 1775.38H525.794ZM562.345 1717.21L664.581 1540.13L696.687 1595.73L594.451 1772.82L562.345 1717.21ZM666.062 1659.04H870.544L838.437 1714.64H633.966L666.062 1659.04ZM873.507 1653.91H669.025L701.132 1598.3H905.604L878.697 1644.9L873.507 1653.91ZM1048.84 1598.3L1151.08 1775.38H1086.88L984.641 1598.3H1048.84ZM1157.01 1775.38L1054.77 1598.3H1118.97L1221.21 1775.38H1157.01ZM1193.56 1717.21L1295.79 1540.13L1327.9 1595.73L1225.66 1772.82L1193.56 1717.21ZM1297.28 1659.04H1501.75L1469.64 1714.64H1265.17L1297.28 1659.04ZM1680.06 1598.3L1782.29 1775.38H1718.09L1615.85 1598.3H1680.06ZM1788.22 1775.38L1685.98 1598.3H1750.19L1852.43 1775.38H1788.22ZM1785.26 1532.43H1580.78L1612.89 1476.83H1817.36L1785.26 1532.43ZM1615.85 1471.7L1647.96 1416.09H1852.43L1820.33 1471.7H1615.85ZM1788.22 1410.95L1685.98 1233.87H1750.19L1852.43 1410.95H1788.22ZM1785.26 1168H1580.78L1612.89 1112.4H1817.36L1785.26 1168ZM1615.85 1107.26L1647.96 1051.65H1852.43L1820.33 1107.26H1615.85ZM1788.22 1046.52L1685.98 869.444H1750.19L1852.43 1046.52H1788.22ZM1785.26 803.568H1580.78L1612.89 747.968H1817.36L1785.26 803.568ZM1615.85 742.825L1647.96 687.224H1852.43L1820.33 742.825H1615.85ZM1788.22 682.092L1685.98 505.014H1750.19L1852.42 682.092H1788.22ZM1785.26 439.138H1580.78L1612.89 383.537H1817.36L1785.26 439.138ZM1615.85 378.395L1647.96 322.794H1852.43L1820.33 378.395H1615.85ZM1609.92 140.574L1712.15 317.652H1647.95L1613.64 258.218C1613.64 258.218 1613.64 258.218 1613.64 258.209L1578.57 197.475L1545.72 140.565H1609.92V140.574ZM1469.65 256.918H1265.18L1297.28 201.317H1501.76L1469.65 256.918ZM1466.69 262.051L1434.58 317.652H1230.11L1262.22 262.051H1466.69ZM1157.01 317.661L1054.77 140.584H1118.97L1221.21 317.661H1157.01ZM978.706 140.574L1080.94 317.652H1016.74L982.424 258.218L947.354 197.484L914.502 140.574H978.706ZM910.058 143.146L942.164 198.746L839.919 375.833L807.812 320.233L883.944 188.356L910.058 143.146ZM838.437 256.918H633.966L666.072 201.317H870.553L838.437 256.918ZM835.474 262.051L803.368 317.652H598.896L631.002 262.051H835.474ZM525.794 317.661L423.558 140.584H487.761L590.007 317.661H525.794ZM346.011 259.489L243.776 436.567L211.669 380.966L313.905 203.889L346.011 259.489ZM346.011 623.92L243.776 800.997L211.669 745.396L313.905 568.319L346.011 623.92ZM346.011 988.35L243.776 1165.43L211.669 1109.83L313.905 932.749L346.011 988.35ZM346.011 1352.78L243.776 1529.87L211.669 1474.27L313.905 1297.19L346.011 1352.78ZM274.4 1598.3L247.494 1644.9L242.294 1653.91H37.8127L69.9192 1598.3H274.4ZM176.609 1777.95L251.948 1647.47L278.855 1600.88L310.961 1656.48L208.706 1833.55L176.609 1777.95ZM598.896 1775.38L631.002 1719.78H835.474L803.368 1775.38H598.896ZM807.822 1777.95L883.161 1647.47L910.067 1600.88L942.174 1656.48L839.919 1833.55L807.822 1777.95ZM1262.22 1719.78H1466.69L1434.58 1775.38H1230.11L1262.22 1719.78ZM1439.03 1777.95L1541.27 1600.88L1573.38 1656.48L1471.13 1833.55L1439.03 1777.95ZM1820.33 1836.13H1615.85L1647.96 1780.52H1852.43L1820.33 1836.13ZM1536.83 140.574L1504.72 196.175H1300.25L1332.35 140.574H1536.83ZM1327.9 138.013L1225.66 315.09L1193.56 259.489L1295.79 82.4119L1327.9 138.013ZM1118.97 135.441H914.502L946.609 79.8407H1151.08L1118.97 135.441ZM905.613 140.574L879.509 185.785L873.507 196.185H669.025L701.132 140.584H905.613V140.574ZM696.687 138.013L594.451 315.09L562.345 259.489L664.581 82.4119L696.687 138.013ZM487.761 135.441H283.29L315.396 79.8407H519.868L487.761 135.441ZM274.4 140.574L248.297 185.785L242.294 196.185H37.8127L69.9192 140.584H274.4V140.574ZM278.845 143.146L310.951 198.746L208.716 375.824L176.609 320.223L252.741 188.347L278.845 143.146ZM172.155 322.794L274.391 499.881H210.188L107.952 322.794H172.155ZM274.4 505.005L247.494 551.601L242.294 560.605H37.8127L69.9192 505.005H274.4ZM278.845 507.576L310.951 563.177L208.716 740.254L176.609 684.653L251.948 554.173L278.845 507.576ZM172.155 687.224L274.4 864.302H210.197L107.961 687.224H172.155ZM274.4 869.444L247.494 916.041L242.294 925.045H37.8127L69.9192 869.444H274.4ZM278.845 872.006L310.951 927.607L208.706 1104.69L176.6 1049.09L251.938 918.612L278.845 872.006ZM172.155 1051.65L274.4 1228.74H210.197L107.961 1051.66H172.155V1051.65ZM274.4 1233.87L247.895 1279.78L242.294 1289.48H37.8127L69.9192 1233.87H274.4ZM278.845 1236.44L310.951 1292.04L208.706 1469.12L176.6 1413.52L252.33 1282.35L278.845 1236.44ZM172.155 1416.09L274.4 1593.17H210.197L107.961 1416.09H172.155V1416.09ZM2.7528 1714.65L34.8592 1659.05H239.331L207.225 1714.65H2.7528ZM243.776 1894.3L211.669 1838.7L313.905 1661.62L346.011 1717.22L243.776 1894.3ZM318.359 1896.86L350.466 1841.26H554.937L522.831 1896.86H318.359ZM874.988 1894.3L842.882 1838.7L945.118 1661.62L977.224 1717.22L874.988 1894.3ZM949.572 1896.86L981.678 1841.26H1186.15L1154.04 1896.86H949.572ZM1506.2 1894.3L1474.09 1838.7L1576.33 1661.61L1608.44 1717.22L1506.2 1894.3ZM1580.78 1896.86L1612.89 1841.26H1817.36L1785.26 1896.86H1580.78ZM1888.98 1474.26L1786.75 1651.33L1754.64 1595.73L1856.88 1418.66L1888.98 1474.26ZM1888.98 1109.83L1786.75 1286.9L1754.64 1231.3L1856.88 1054.23L1888.98 1109.83ZM1888.98 745.396L1786.75 922.474L1754.64 866.873L1856.88 689.796L1888.98 745.396ZM1888.98 380.966L1786.75 558.044L1754.64 502.443L1856.88 325.356L1888.98 380.966ZM1817.36 19.0975L1785.26 74.6984H1580.78L1612.89 19.0975H1817.36ZM1577.82 79.8407H1782.29L1750.19 135.441H1545.72L1577.82 79.8407ZM1260.73 21.6687L1292.84 77.2694L1190.6 254.347L1158.5 198.746L1260.73 21.6687ZM1186.15 19.0975L1154.04 74.6984H949.572L981.678 19.0975H1186.15ZM629.521 21.6687L661.627 77.2694L559.382 254.357L527.275 198.756L629.521 21.6687ZM554.937 19.0975L522.831 74.6984H318.359L350.466 19.0975H554.937ZM2.7528 256.918L34.8592 201.317H239.331L207.225 256.918H2.7528ZM37.8127 322.794H102.016L204.252 499.881H140.058L37.8127 322.794ZM2.7528 621.348L34.8592 565.748H239.331L207.225 621.348H2.7528ZM37.8127 687.224H102.016L204.261 864.302H140.058L37.8127 687.224ZM2.7528 985.788L34.8592 930.188H239.331L207.225 985.788H2.7528ZM37.8127 1051.65H102.016L204.261 1228.74H140.058L37.8127 1051.65ZM2.7528 1350.22L34.8592 1294.62H239.331L207.225 1350.22H2.7528ZM37.8127 1416.09H102.016L204.261 1593.17H140.058L37.8127 1416.09Z" fill="#D1D0CE" fill-opacity="0.03"/>
</svg>
