<svg width="864" height="56" viewBox="0 0 864 56" fill="none" xmlns="http://www.w3.org/2000/svg">
<path d="M0.12 3.2V48H5.56V8.32H22.2V3.2H0.12ZM41.7175 13.312L54.1975 46.08H59.9575L41.7175 0.959999L23.4775 46.08H29.2375L41.7175 13.312ZM59.6375 48V55.04H64.4375V42.88H18.9975V55.04H23.7975V48H59.6375ZM75.4405 48H98.0325V42.88H75.4405V48ZM75.4405 8.32H98.0325V3.2H75.4405V8.32ZM75.4405 26.24H96.7525V21.12H75.4405V26.24ZM72.4325 3.2V48H77.8725V3.2H72.4325ZM126.808 3.2V48H132.248V3.2H126.808ZM149.848 3.2L130.584 24.32L150.808 48H157.528L137.176 24.192L156.568 3.2H149.848ZM194.035 3.2H187.955L174.387 33.024L177.779 33.28L164.595 3.2H157.875L172.659 34.752L166.899 48H172.979L194.035 3.2ZM229.263 8.32V48H234.703V3.2H199.183V48H204.623V8.32H229.263ZM283.973 9.28L284.293 0.959999L245.253 41.92L244.933 50.24L283.973 9.28ZM250.373 3.2H244.933V50.24L250.373 43.2V3.2ZM284.293 0.959999L278.853 8V48H284.293V0.959999ZM290.078 8.32H301.598V48H307.038V8.32H318.558V3.2H290.078V8.32ZM324.308 3.2V48H329.748V3.2H324.308ZM327.316 26.24H336.468C338.388 26.24 340.073 26.56 341.524 27.2C343.017 27.7973 344.169 28.7147 344.98 29.952C345.833 31.1893 346.26 32.7253 346.26 34.56C346.26 36.3947 345.833 37.9307 344.98 39.168C344.169 40.4053 343.017 41.344 341.524 41.984C340.073 42.5813 338.388 42.88 336.468 42.88H327.316V48H336.468C339.369 48 341.95 47.4667 344.212 46.4C346.516 45.2907 348.329 43.7333 349.652 41.728C351.017 39.68 351.7 37.2907 351.7 34.56C351.7 31.7867 351.017 29.3973 349.652 27.392C348.329 25.3867 346.516 23.8507 344.212 22.784C341.95 21.6747 339.369 21.12 336.468 21.12H327.316V26.24ZM381.566 26.24H412.286V21.12H381.566V26.24ZM408.638 3.2V48H414.078V3.2H408.638ZM378.558 3.2V48H383.998V3.2H378.558ZM427.316 48H449.908V42.88H427.316V48ZM427.316 8.32H449.908V3.2H427.316V8.32ZM427.316 26.24H448.628V21.12H427.316V26.24ZM424.308 3.2V48H429.748V3.2H424.308ZM463.783 34.56H487.463L485.543 29.44H465.703L463.783 34.56ZM475.495 13.312L483.175 31.36L483.687 32.64L490.215 48H496.295L475.495 0.959999L454.695 48H460.775L467.431 32.256L467.943 31.104L475.495 13.312ZM492.765 8.32H504.285V48H509.725V8.32H521.245V3.2H492.765V8.32ZM541.703 8.32H553.223V48H558.663V8.32H570.183V3.2H541.703V8.32ZM575.945 25.6C575.945 22.2293 576.67 19.2213 578.121 16.576C579.614 13.9307 581.641 11.84 584.201 10.304C586.761 8.768 589.662 8 592.905 8C596.19 8 599.092 8.768 601.609 10.304C604.169 11.84 606.174 13.9307 607.625 16.576C609.118 19.2213 609.865 22.2293 609.865 25.6C609.865 28.9707 609.118 31.9787 607.625 34.624C606.174 37.2693 604.169 39.36 601.609 40.896C599.092 42.432 596.19 43.2 592.905 43.2C589.662 43.2 586.761 42.432 584.201 40.896C581.641 39.36 579.614 37.2693 578.121 34.624C576.67 31.9787 575.945 28.9707 575.945 25.6ZM570.185 25.6C570.185 28.8427 570.74 31.872 571.849 34.688C573.001 37.504 574.601 39.9573 576.649 42.048C578.697 44.096 581.108 45.7173 583.881 46.912C586.654 48.064 589.662 48.64 592.905 48.64C596.19 48.64 599.198 48.064 601.929 46.912C604.702 45.7173 607.113 44.096 609.161 42.048C611.209 39.9573 612.788 37.504 613.897 34.688C615.049 31.872 615.625 28.8427 615.625 25.6C615.625 22.3147 615.049 19.2853 613.897 16.512C612.788 13.696 611.209 11.264 609.161 9.216C607.113 7.12533 604.702 5.504 601.929 4.352C599.198 3.15733 596.19 2.56 592.905 2.56C589.662 2.56 586.654 3.15733 583.881 4.352C581.108 5.504 578.697 7.12533 576.649 9.216C574.601 11.264 573.001 13.696 571.849 16.512C570.74 19.2853 570.185 22.3147 570.185 25.6ZM627.595 24.32H634.828C637.516 24.32 639.841 23.936 641.804 23.168C643.809 22.4 645.366 21.2693 646.476 19.776C647.585 18.2827 648.14 16.4907 648.14 14.4C648.14 11.84 647.585 9.74933 646.476 8.128C645.366 6.464 643.809 5.22666 641.804 4.416C639.841 3.60533 637.516 3.2 634.828 3.2H623.308V48H635.468C638.369 48 640.95 47.5307 643.212 46.592C645.516 45.6107 647.329 44.16 648.652 42.24C650.017 40.2773 650.7 37.824 650.7 34.88C650.7 32.832 650.316 31.0613 649.548 29.568C648.78 28.0747 647.692 26.8587 646.284 25.92C644.918 24.9387 643.318 24.2133 641.484 23.744C639.649 23.2747 637.644 23.04 635.468 23.04H627.595V26.048H635.468C636.918 26.048 638.241 26.24 639.436 26.624C640.63 26.9653 641.654 27.4987 642.508 28.224C643.404 28.9493 644.086 29.8453 644.556 30.912C645.025 31.9787 645.26 33.1947 645.26 34.56C645.26 36.3947 644.833 37.952 643.98 39.232C643.169 40.512 642.017 41.4933 640.524 42.176C639.073 42.8587 637.388 43.2 635.468 43.2H628.748V8H634.828C637.089 8 638.966 8.59733 640.46 9.792C641.953 10.944 642.7 12.5867 642.7 14.72C642.7 16.128 642.358 17.3227 641.676 18.304C640.993 19.2853 640.054 20.032 638.86 20.544C637.665 21.056 636.321 21.312 634.828 21.312H627.595V24.32ZM662.345 34.56H686.026L684.106 29.44H664.266L662.345 34.56ZM674.058 13.312L681.738 31.36L682.25 32.64L688.778 48H694.858L674.058 0.959999L653.258 48H659.338L665.994 32.256L666.506 31.104L674.058 13.312ZM701.57 25.6C701.57 22.1013 702.338 19.0507 703.874 16.448C705.453 13.8027 707.501 11.7333 710.018 10.24C712.535 8.74667 715.266 8 718.21 8C720.343 8 722.285 8.27733 724.034 8.832C725.826 9.38666 727.447 10.176 728.898 11.2C730.349 12.1813 731.586 13.3333 732.61 14.656V7.488C730.733 5.824 728.685 4.58666 726.466 3.776C724.247 2.96533 721.495 2.56 718.21 2.56C715.095 2.56 712.173 3.136 709.442 4.288C706.754 5.39733 704.386 6.99733 702.338 9.088C700.29 11.136 698.69 13.568 697.538 16.384C696.386 19.2 695.81 22.272 695.81 25.6C695.81 28.928 696.386 32 697.538 34.816C698.69 37.632 700.29 40.0853 702.338 42.176C704.386 44.224 706.754 45.824 709.442 46.976C712.173 48.0853 715.095 48.64 718.21 48.64C721.495 48.64 724.247 48.2347 726.466 47.424C728.685 46.6133 730.733 45.376 732.61 43.712V36.544C731.586 37.8667 730.349 39.04 728.898 40.064C727.447 41.0453 725.826 41.8133 724.034 42.368C722.285 42.9227 720.343 43.2 718.21 43.2C715.266 43.2 712.535 42.4533 710.018 40.96C707.501 39.4667 705.453 37.3973 703.874 34.752C702.338 32.1067 701.57 29.056 701.57 25.6ZM745.383 25.6C745.383 22.1013 746.151 19.0507 747.687 16.448C749.265 13.8027 751.313 11.7333 753.831 10.24C756.348 8.74667 759.079 8 762.023 8C764.156 8 766.097 8.27733 767.847 8.832C769.639 9.38666 771.26 10.176 772.711 11.2C774.161 12.1813 775.399 13.3333 776.423 14.656V7.488C774.545 5.824 772.497 4.58666 770.279 3.776C768.06 2.96533 765.308 2.56 762.023 2.56C758.908 2.56 755.985 3.136 753.255 4.288C750.567 5.39733 748.199 6.99733 746.151 9.088C744.103 11.136 742.503 13.568 741.351 16.384C740.199 19.2 739.623 22.272 739.623 25.6C739.623 28.928 740.199 32 741.351 34.816C742.503 37.632 744.103 40.0853 746.151 42.176C748.199 44.224 750.567 45.824 753.255 46.976C755.985 48.0853 758.908 48.64 762.023 48.64C765.308 48.64 768.06 48.2347 770.279 47.424C772.497 46.6133 774.545 45.376 776.423 43.712V36.544C775.399 37.8667 774.161 39.04 772.711 40.064C771.26 41.0453 769.639 41.8133 767.847 42.368C766.097 42.9227 764.156 43.2 762.023 43.2C759.079 43.2 756.348 42.4533 753.831 40.96C751.313 39.4667 749.265 37.3973 747.687 34.752C746.151 32.1067 745.383 29.056 745.383 25.6ZM789.195 25.6C789.195 22.2293 789.92 19.2213 791.371 16.576C792.864 13.9307 794.891 11.84 797.451 10.304C800.011 8.768 802.912 8 806.155 8C809.44 8 812.342 8.768 814.859 10.304C817.419 11.84 819.424 13.9307 820.875 16.576C822.368 19.2213 823.115 22.2293 823.115 25.6C823.115 28.9707 822.368 31.9787 820.875 34.624C819.424 37.2693 817.419 39.36 814.859 40.896C812.342 42.432 809.44 43.2 806.155 43.2C802.912 43.2 800.011 42.432 797.451 40.896C794.891 39.36 792.864 37.2693 791.371 34.624C789.92 31.9787 789.195 28.9707 789.195 25.6ZM783.435 25.6C783.435 28.8427 783.99 31.872 785.099 34.688C786.251 37.504 787.851 39.9573 789.899 42.048C791.947 44.096 794.358 45.7173 797.131 46.912C799.904 48.064 802.912 48.64 806.155 48.64C809.44 48.64 812.448 48.064 815.179 46.912C817.952 45.7173 820.363 44.096 822.411 42.048C824.459 39.9573 826.038 37.504 827.147 34.688C828.299 31.872 828.875 28.8427 828.875 25.6C828.875 22.3147 828.299 19.2853 827.147 16.512C826.038 13.696 824.459 11.264 822.411 9.216C820.363 7.12533 817.952 5.504 815.179 4.352C812.448 3.15733 809.44 2.56 806.155 2.56C802.912 2.56 799.904 3.15733 797.131 4.352C794.358 5.504 791.947 7.12533 789.899 9.216C787.851 11.264 786.251 13.696 785.099 16.512C783.99 19.2853 783.435 22.3147 783.435 25.6ZM858.062 16C858.062 17.6213 857.571 19.2 856.59 20.736C855.608 22.2293 854.2 23.4667 852.366 24.448C850.531 25.4293 848.334 25.92 845.774 25.92H844.11L845.39 37.12H849.23L849.678 29.44C852.067 29.312 854.286 28.6507 856.334 27.456C858.382 26.2187 860.046 24.6187 861.326 22.656C862.606 20.6507 863.246 18.432 863.246 16C863.246 14.08 862.883 12.3093 862.158 10.688C861.475 9.06666 860.494 7.65866 859.214 6.464C857.976 5.22666 856.504 4.26667 854.798 3.584C853.134 2.90133 851.299 2.56 849.294 2.56C846.776 2.56 844.643 2.88 842.894 3.52C841.187 4.11733 839.736 4.992 838.542 6.144C837.347 7.25333 836.259 8.55466 835.278 10.048L839.438 12.672C840.419 11.0507 841.656 9.77066 843.15 8.832C844.686 7.85066 846.52 7.36 848.654 7.36C850.574 7.36 852.238 7.70133 853.646 8.384C855.054 9.06666 856.142 10.048 856.91 11.328C857.678 12.608 858.062 14.1653 858.062 16ZM843.918 45.44C843.918 46.3787 844.259 47.2107 844.942 47.936C845.667 48.6187 846.499 48.96 847.438 48.96C848.419 48.96 849.251 48.6187 849.934 47.936C850.616 47.2107 850.958 46.3787 850.958 45.44C850.958 44.4587 850.616 43.6267 849.934 42.944C849.251 42.2613 848.419 41.92 847.438 41.92C846.499 41.92 845.667 42.2613 844.942 42.944C844.259 43.6267 843.918 44.4587 843.918 45.44Z" fill="white"/>
</svg>
