<svg width="128" height="61" viewBox="0 0 128 61" fill="none" xmlns="http://www.w3.org/2000/svg">
<path d="M1 22.1899C1 43.072 7.3067 60 15.0864 60C22.8661 60 29.1729 43.072 29.1729 22.1899C29.1729 10.4871 26.5031 1 23.2099 1C19.9166 1 17.2469 10.4871 17.2469 22.1899C17.2469 43.072 23.5536 60 31.3333 60C39.1131 60 45.42 43.072 45.42 22.1899C45.42 10.4871 42.7502 1 39.4568 1C36.1635 1 33.4938 10.4871 33.4938 22.1899C33.4938 43.072 39.8393 60 47.6666 60C55.494 60 61.8396 43.072 61.8396 22.1899C61.8396 10.4871 59.1698 1 55.8765 1C52.5831 1 49.9138 10.4871 49.9138 22.1899C49.9138 43.072 56.2202 60 64 60C71.7798 60 78.0862 43.072 78.0862 22.1899C78.0862 10.4871 75.4169 1 72.1235 1C68.8302 1 66.1604 10.4871 66.1604 22.1899C66.1604 43.072 72.4673 60 80.2471 60C88.0268 60 94.3333 43.072 94.3333 22.1899C94.3333 10.4871 91.6635 1 88.3706 1C85.0772 1 82.4074 10.4871 82.4074 22.1899C82.4074 43.072 88.7144 60 96.4936 60C104.273 60 110.58 43.072 110.58 22.1899C110.58 10.4871 107.911 1 104.617 1C101.324 1 98.6545 10.4871 98.6545 22.1899C98.6545 43.072 105 60 112.827 60C120.654 60 127 43.072 127 22.1899" stroke="white" stroke-linecap="round"/>
</svg>
