<svg width="166" height="79" viewBox="0 0 166 79" fill="none" xmlns="http://www.w3.org/2000/svg">
<path fill-rule="evenodd" clip-rule="evenodd" d="M50.2812 53.3896C55.8586 56.9002 62.5633 58.7088 69.8415 58.7088L69.8415 58.7086C70.9491 58.7086 72.0567 58.6554 73.184 58.5668C79.6055 58.0884 86.1593 56.2341 92.034 53.2563C98.481 61.009 104.178 69.6224 108.647 78.603L111.356 77.5243C110.679 76.1613 109.971 74.8026 109.234 73.4499C109.558 72.3218 109.913 71.1997 110.298 70.0844C112.278 70.3591 114.275 70.5008 116.259 70.5008L116.258 70.5007C120.372 70.5007 124.446 69.9156 128.184 68.7808C134.77 66.7596 140.011 63.1069 143.314 58.2487C146.657 53.337 147.606 47.9468 148.516 42.7518C148.951 40.2695 149.406 37.6807 150.118 35.1452C152.254 27.6096 157.337 17.8219 164.674 15.1091C165.366 14.8431 165.762 14.2048 165.643 13.5488C165.505 12.8927 164.892 12.414 164.14 12.3785C147.804 11.9175 125.179 15.5523 111.473 24.6838C106.352 28.0998 102.355 32.517 99.8806 37.3252C100.385 31.0867 99.0997 25.2219 96.0274 19.9665C93.2785 15.25 89.2041 11.1897 83.9631 7.89174C79.1571 4.87743 73.5005 2.64334 67.6067 1.41991C58.1133 -0.530504 46.3257 -0.477303 33.5294 1.61495C22.3352 3.4413 10.7453 6.75714 0.915662 10.9416C0.223463 11.2253 -0.13254 11.8991 0.0454614 12.5551C0.223463 13.2289 0.876135 13.6722 1.64747 13.6722C11.675 13.4773 23.0276 22.4314 29.7123 30.1444C31.9243 32.7062 33.8649 35.4247 35.7452 38.0586L35.804 38.141L35.8326 38.181C39.7595 43.6651 43.8097 49.3214 50.2812 53.3896ZM111.241 67.5185C115.065 57.7238 121.225 48.5301 129.312 40.6088L127.117 38.818C118.879 46.8932 112.558 56.2663 108.588 66.2536C102.492 60.3218 99.5406 53.6666 100.082 46.9007C100.676 39.4183 105.6 31.918 113.254 26.8115C125.1 18.9033 144.027 15.304 159.217 15.0026C153.263 19.4354 149.209 27.5206 147.251 34.4713C146.538 36.9953 146.092 39.503 145.659 41.9342L145.659 41.9349L145.59 42.3263C144.68 47.486 143.81 52.3798 140.784 56.8479C134.471 66.1224 121.767 68.8461 111.241 67.5185ZM107.519 69.1188C107.425 69.3889 107.332 69.6594 107.242 69.9302C106.738 69.0717 106.222 68.2165 105.695 67.3649C106.275 67.9565 106.883 68.5413 107.519 69.1188ZM51.9832 51.226C63.8356 58.672 78.9969 56.7153 90.2283 51.13C79.5901 38.8622 67.1093 28.9623 54.8115 23.5141L56.1366 21.1382C66.7178 25.8368 77.5757 33.7628 87.5439 44.0644C89.3329 45.9147 91.0737 47.8199 92.7602 49.7717C93.1022 49.5742 93.4396 49.3733 93.772 49.1692C98.2221 38.903 98.1035 29.2573 93.3962 21.225C88.511 12.8737 78.622 6.43749 66.9334 4.02591C48.619 0.249351 24.3924 4.85927 6.71127 11.544L6.71167 11.5439C16.2444 13.583 25.7577 21.2428 32.0471 28.5125C34.3412 31.1668 36.3243 33.943 38.2467 36.6342L38.2968 36.7044C42.2327 42.2188 45.9707 47.4495 51.9832 51.226ZM98.8473 57.3315C97.4635 55.4851 96.0301 53.6682 94.5514 51.8867C94.989 51.6316 95.4217 51.3701 95.8494 51.1021L96.2054 50.8716L96.3636 50.4993C96.6041 49.9569 96.8325 49.416 97.0491 48.8766C97.1009 51.7407 97.7066 54.5722 98.8473 57.3315ZM163.546 12.6273H163.527C163.546 12.6451 163.546 12.6273 163.546 12.6273Z" fill="white"/>
</svg>
