<svg width="300" height="300" viewBox="0 0 300 300" fill="none" xmlns="http://www.w3.org/2000/svg">
<g filter="url(#filter0_f_621_7)">
<path d="M198.94 198.94C225.991 171.889 225.991 128.031 198.94 100.98C171.889 73.9291 128.031 73.9291 100.98 100.98C73.9291 128.031 73.9291 171.889 100.98 198.94C128.031 225.991 171.889 225.991 198.94 198.94Z" fill="#FF5C00" fill-opacity="0.58"/>
</g>
<path d="M140.606 199.561C142.396 200.193 143.606 200.389 143.655 200.396C145.255 200.632 146.795 200.739 148.275 200.739C148.728 200.739 149.176 200.728 149.617 200.709C150.059 200.722 150.505 200.742 150.939 200.742C180.573 200.742 190.345 171.049 190.542 170.427C200.038 141.283 178.969 114.383 178.754 114.116C178.506 113.805 178.078 113.699 177.712 113.863C177.348 114.026 177.139 114.416 177.206 114.809C178.198 120.618 176.622 126.632 176.602 126.708C174.749 134.246 169.639 134.674 165.679 133.705C164.232 133.35 162.957 132.747 161.89 131.908C153.915 125.638 158.474 110.451 158.52 110.302C162.982 96.0223 149.345 87.222 149.206 87.1345C148.874 86.9258 148.441 86.9626 148.151 87.2268C147.86 87.491 147.78 87.9169 147.957 88.2684C149.682 91.7018 152.628 100.234 142.722 105.274C140.772 106.267 139.175 107.339 137.842 108.55C126.474 118.871 129.748 134.758 129.885 135.386C129.938 135.709 129.983 136.021 130.022 136.328C130.608 140.93 127.496 143.566 124.152 144.136C120.874 144.695 116.904 143.218 115.924 138.656C115.155 135.067 115.41 131.766 115.412 131.734C115.444 131.346 115.215 130.985 114.853 130.845C114.491 130.708 114.079 130.824 113.843 131.132C97.1962 152.97 112.2 178.8 112.352 179.056C120.342 192.602 132.58 197.669 140.605 199.562L140.606 199.561ZM147.237 161.201L147.002 160.775C146.885 160.582 135.841 142.075 146.258 131.029C146.483 135.567 148.227 146.564 159.208 155.447C159.267 155.498 165.065 160.729 169.257 167.559C174.735 176.485 175.02 183.788 170.082 189.294C169.997 189.397 162.435 198.375 149.597 198.956C149.3 198.947 149.011 198.948 148.711 198.934H148.707C148.565 198.934 145.285 198.904 140.608 197.759C135.3 195.809 125.51 189.918 125.605 172.995C126.086 173.676 126.678 174.441 127.38 175.225C132.356 180.779 139.044 180.13 143.465 177.022C147.764 173.999 150.779 167.758 147.237 161.2L147.237 161.201ZM113.647 134.445C113.702 135.731 113.854 137.337 114.215 139.023C115.436 144.713 120.38 146.557 124.449 145.861C128.481 145.174 132.49 141.827 131.762 136.107C131.721 135.78 131.673 135.447 131.609 135.06C131.575 134.905 128.394 119.496 139.022 109.846C140.239 108.741 141.71 107.756 143.52 106.835C152.483 102.273 152.103 95.0493 150.758 90.5854C154.217 93.7341 159.75 100.502 156.85 109.782C156.643 110.451 151.889 126.269 160.81 133.284C162.075 134.278 163.573 134.992 165.265 135.406C168.383 136.168 175.903 136.891 178.3 127.143C178.357 126.93 179.453 122.764 179.273 117.865C184.167 125.229 196.384 146.862 188.878 169.888C188.877 169.891 188.877 169.895 188.875 169.898C188.795 170.152 182.023 190.981 162.463 197.229C168.182 194.265 171.367 190.491 171.41 190.437C174.221 187.303 175.529 183.586 175.299 179.388C174.621 167.025 160.959 154.662 160.344 154.114C147.142 143.433 147.993 129.211 148.004 129.068C148.029 128.718 147.84 128.385 147.527 128.225C147.213 128.065 146.834 128.11 146.565 128.336C132.615 140.112 145.376 161.473 145.491 161.656L145.697 162.032C148.747 167.682 146.27 172.912 142.46 175.591C138.673 178.253 132.947 178.813 128.687 174.058C126.694 171.833 125.635 169.718 125.625 169.696C125.45 169.341 125.058 169.151 124.669 169.226C124.281 169.303 123.993 169.631 123.966 170.026C123.081 183.274 127.768 190.82 132.789 195.081C126.311 192.178 119.127 187.091 113.864 178.164C113.722 177.924 100.327 154.823 113.647 134.445L113.647 134.445Z" fill="white"/>
<defs>
<filter id="filter0_f_621_7" x="0.691406" y="0.691895" width="298.537" height="298.537" filterUnits="userSpaceOnUse" color-interpolation-filters="sRGB">
<feFlood flood-opacity="0" result="BackgroundImageFix"/>
<feBlend mode="normal" in="SourceGraphic" in2="BackgroundImageFix" result="shape"/>
<feGaussianBlur stdDeviation="40" result="effect1_foregroundBlur_621_7"/>
</filter>
</defs>
</svg>
