<svg width="71" height="71" viewBox="0 0 71 71" fill="none" xmlns="http://www.w3.org/2000/svg">
<path fill-rule="evenodd" clip-rule="evenodd" d="M50.5636 0H20.4364C9.16837 0 0 9.1317 0 20.3571V50.6429C0 61.8672 9.16724 71 20.4364 71H50.5636C61.8328 71 71 61.8672 71 50.6429V20.3571C71 9.13283 61.8328 0 50.5636 0ZM64.2367 50.6429C64.2367 58.1528 58.1027 64.2629 50.5636 64.2629H20.4364C12.8973 64.2629 6.76332 58.1528 6.76332 50.6429V20.3571C6.76332 12.8473 12.8973 6.7371 20.4364 6.7371H50.5636C58.1027 6.7371 64.2367 12.8473 64.2367 20.3571V50.6429ZM35.5564 17.1044C25.3382 17.1044 17.0234 25.2978 17.0234 35.37C17.0234 45.4409 25.3371 53.6344 35.5564 53.6344C45.7746 53.6344 54.0894 45.4409 54.0894 35.37C54.0894 25.2978 45.7746 17.1044 35.5564 17.1044ZM35.5564 46.91C29.059 46.91 23.7739 41.7323 23.7739 35.37C23.7739 29.0065 29.059 23.8299 35.5564 23.8299C42.0526 23.8299 47.3388 29.0065 47.3388 35.37C47.3388 41.7334 42.0537 46.91 35.5564 46.91ZM58.7817 16.3581C58.7817 18.7571 56.8295 20.7018 54.4212 20.7018C52.0129 20.7018 50.0605 18.7571 50.0605 16.3581C50.0605 13.9592 52.0129 12.0144 54.4212 12.0144C56.8295 12.0144 58.7817 13.9592 58.7817 16.3581Z" fill="white"/>
</svg>
