<svg width="102" height="107" viewBox="0 0 102 107" fill="none" xmlns="http://www.w3.org/2000/svg">
<path fill-rule="evenodd" clip-rule="evenodd" d="M45.4399 39.1239C47.241 39.7106 49.1115 40.0073 50.9995 40.0073L50.9993 40.0066C52.8919 40.0066 54.7634 39.7091 56.5628 39.1215L56.9193 39.0053C57.7826 40.6456 58.8722 42.1532 60.1608 43.4941C61.4344 44.8166 62.8675 45.9398 64.4252 46.8352L64.3715 47.0134C63.807 48.8896 63.52 50.8506 63.52 52.8468C63.52 54.8373 63.8054 56.799 64.3676 58.6786L64.4169 58.8432C62.8579 59.7475 61.4241 60.8802 60.1493 62.2162C58.8037 63.6298 57.67 65.235 56.782 66.988L56.5579 66.9148C52.9646 65.7404 49.0203 65.742 45.4411 66.9123L45.2164 66.9856C44.3349 65.2438 43.2031 63.6394 41.8526 62.2184C40.5871 60.8883 39.1531 59.7548 37.586 58.8464L37.6369 58.6763C38.1991 56.7959 38.4837 54.8342 38.4837 52.8454C38.4837 50.8589 38.1991 48.8957 37.6369 47.0145L37.5823 46.8319C39.3147 45.8378 40.8868 44.564 42.2598 43.0436C43.364 41.8226 44.3105 40.4651 45.0794 39.0063L45.4399 39.1239ZM65.7924 59.0013L65.8393 59.1615C68.113 66.9105 74.8309 72.1151 82.556 72.1151C85.3788 72.1151 88.1868 71.3892 90.6799 70.0131L90.6378 69.8718C89.7989 67.0627 88.2794 64.4724 86.2459 62.3784C82.908 58.9465 78.4711 57.0562 73.752 57.0562C70.9886 57.0562 68.2441 57.7276 65.7924 59.0013ZM91.8146 70.3217L91.8583 70.4714C93.9361 77.5745 92.12 85.2495 87.117 90.5001C83.5133 94.2814 78.7246 96.3639 73.6332 96.3639L73.633 96.3639C71.7253 96.3639 69.8357 96.0656 68.019 95.4788L67.6906 95.3728L67.6859 95.3823C64.404 101.954 58.0089 106.036 50.9993 106.036L50.9989 106.035C43.9934 106.035 37.5989 101.953 34.3116 95.382L34.3093 95.3774L33.9827 95.4818C32.1548 96.0678 30.2636 96.3661 28.3654 96.3661L28.3657 96.3661C23.2734 96.3661 18.487 94.2828 14.8857 90.5032C9.88188 85.2542 8.06517 77.5799 10.1436 70.4745L10.1874 70.3252C3.90188 66.871 0 60.1796 0 52.8462C0 45.5231 3.89195 38.8396 10.1629 35.3784L10.1437 35.3135C8.13635 28.5251 9.79347 21.095 14.4667 15.9241C18.0529 11.9488 23.1191 9.66992 28.3648 9.66992C30.2678 9.66992 32.1551 9.96331 33.9726 10.5427L34.3139 10.6518C37.5956 4.08031 43.9881 0 50.9993 0C58.0101 0 64.4049 4.08148 67.6894 10.654L68.0274 10.5455C69.841 9.96451 71.729 9.67029 73.6376 9.67029C78.7291 9.67029 83.5163 11.7298 87.1182 15.4707C92.122 20.6761 93.9387 28.2797 91.8603 35.3162L91.8426 35.376C98.1127 38.839 102.003 45.5231 102 52.8443C102 60.1792 98.0993 66.8693 91.8146 70.3217ZM90.6561 35.7584C88.1769 34.4062 85.3794 33.6923 82.5603 33.6923C74.8353 33.6923 68.1176 38.846 65.8485 46.5169L65.7968 46.692C68.2531 47.9644 70.9961 48.634 73.7536 48.634C78.4696 48.634 82.9057 46.7422 86.2475 43.3087C88.281 41.2196 89.7998 38.6276 90.6393 35.8145L90.6561 35.7584ZM34.7773 94.2191L34.4536 94.3244L34.4483 94.314C33.121 91.6932 32.4197 88.7232 32.4197 85.726C32.4197 77.6096 37.3792 70.5541 44.7612 68.1733L44.9889 68.0999C48.5547 75.2685 47.3202 83.9251 41.9125 89.6539C39.9193 91.7685 37.4519 93.3471 34.7773 94.2191ZM67.5533 94.311L67.5462 94.325L67.2218 94.2194C64.5447 93.3451 62.0772 91.768 60.0857 89.6542C54.6823 83.9265 53.448 75.2691 57.0093 68.1007L57.2382 68.1745C64.6224 70.5553 69.5819 77.6066 69.5819 85.723C69.5819 88.7227 68.8808 91.6919 67.5533 94.311ZM45.1043 37.6987C48.5843 30.4516 47.128 21.5595 41.5177 15.9754C39.572 14.0409 37.3038 12.6421 34.7768 11.8186L34.4415 11.7092L34.4383 11.7154C33.1108 14.3083 32.4103 17.2455 32.4103 20.2098C32.4103 28.2441 37.3682 35.2254 44.7439 37.5833L45.1043 37.6987ZM67.5581 11.7104L67.2258 11.8188C64.5172 12.6998 62.1161 14.2349 60.0898 16.3792C54.7453 22.0492 53.4784 30.5833 56.8988 37.6973L57.2561 37.5828C64.6349 35.2216 69.5897 28.2403 69.5897 20.2094C69.5897 17.2475 68.8893 14.3111 67.5617 11.7175L67.5581 11.7104ZM55.1992 37.8172C52.4653 38.5428 49.5463 38.5445 46.8014 37.8172V37.8165C50.2201 30.0476 48.5612 20.7074 42.6096 14.7854C40.7224 12.91 38.557 11.4948 36.1606 10.5711C39.2787 5.04085 44.8849 1.64267 50.9995 1.64267C57.1141 1.64267 62.7203 5.04001 65.8408 10.5717C63.2752 11.5654 60.9122 13.1605 58.9602 15.2257C53.2931 21.2392 51.8376 30.2005 55.1992 37.8172ZM36.1539 46.5174L36.2062 46.6936C33.7495 47.9631 31.0051 48.6327 28.2454 48.6327C23.7396 48.6327 19.4474 46.8854 16.1609 43.714C13.9194 41.551 12.2631 38.8202 11.3673 35.818L11.3487 35.7553C13.8237 34.4058 16.6201 33.6928 19.4421 33.6928C27.1671 33.6928 33.8832 38.8473 36.1539 46.5174ZM19.4459 72.1181C16.6115 72.1181 13.8045 71.3932 11.3247 70.0182L11.3682 69.8737C12.2055 67.0615 13.7241 64.4702 15.76 62.3778C19.0957 58.945 23.5302 57.0556 28.2501 57.0556C31.0127 57.0556 33.757 57.7267 36.2082 58.9996L36.1601 59.1628C33.8878 66.9118 27.1709 72.1181 19.4459 72.1181ZM37.3573 45.0703C34.6209 37.2415 27.5411 32.0492 19.4436 32.0492C16.6629 32.0492 13.9047 32.6847 11.4047 33.8936C9.97459 27.9295 11.5486 21.5554 15.621 17.0501C18.9592 13.351 23.4845 11.3137 28.3665 11.3137C29.7983 11.3137 31.2222 11.4953 32.6082 11.8545C31.4444 14.4523 30.8324 17.3189 30.8324 20.2092C30.8324 28.6281 35.8251 35.9891 43.3565 38.831C42.7192 39.9347 41.9658 40.9694 41.1111 41.9153C39.9939 43.1538 38.7345 44.2115 37.3573 45.0703ZM73.6339 94.7194C72.1958 94.7194 70.7711 94.5361 69.3835 94.1712L69.3834 94.1712C70.5511 91.5473 71.1654 88.6477 71.1646 85.722C71.1646 77.2226 66.1648 69.7925 58.628 66.9251C59.3656 65.6357 60.2518 64.444 61.2733 63.3715C62.2908 62.3048 63.4198 61.3785 64.6373 60.6101C67.3744 68.5161 74.4582 73.7577 82.5565 73.7577C85.3293 73.7577 88.0892 73.1159 90.5963 71.8938C92.0865 78.1463 90.3647 84.754 85.9934 89.3429C82.6887 92.8111 78.3001 94.7194 73.6339 94.7194ZM58.6476 38.8311C59.3774 40.0967 60.2605 41.2712 61.2796 42.3305C62.2987 43.3881 63.4284 44.3078 64.6491 45.0697C67.3855 37.2393 74.4645 32.0486 82.5627 32.0486C85.341 32.0486 88.0993 32.6847 90.6009 33.8961C92.0881 27.7125 90.3677 21.1775 86.0011 16.6344C82.698 13.2031 78.3076 11.3147 73.6391 11.3147C72.2018 11.3147 70.7786 11.4963 69.3959 11.8563C70.5612 14.4542 71.1732 17.3215 71.1732 20.2093C71.1732 28.6264 66.1789 35.9874 58.6476 38.8311ZM16.01 89.3454C11.6364 84.7588 9.91444 78.1522 11.4063 71.898L11.4065 71.898C13.9049 73.1193 16.6634 73.7611 19.4471 73.7628C27.546 73.7628 34.6274 68.5212 37.3638 60.6135C38.5885 61.3861 39.7175 62.3106 40.7287 63.3749C41.7532 64.4523 42.6395 65.6448 43.374 66.9268C35.837 69.7957 30.8396 77.2268 30.8396 85.7269C30.8396 88.6486 31.4515 91.5479 32.6193 94.1729C31.2254 94.537 29.7983 94.7219 28.3665 94.7219C23.6995 94.7219 19.3115 92.8126 16.01 89.3454ZM10.1672 37.26C4.848 40.5391 1.58031 46.4249 1.58031 52.8451C1.58031 59.2676 4.848 65.1519 10.1672 68.4285C11.1238 65.7305 12.6591 63.2494 14.6468 61.2063C18.2796 57.4677 23.1102 55.4082 28.2492 55.4082C31.0567 55.4082 33.8459 56.0459 36.3767 57.2582C36.7245 55.8233 36.9 54.3424 36.9 52.8449C36.9 51.3475 36.7229 49.8666 36.3751 48.4292C33.8396 49.639 31.048 50.2751 28.2428 50.2751C23.3371 50.2751 18.663 48.3725 15.0824 44.9167C12.8805 42.7899 11.1941 40.1592 10.1672 37.2596L10.1672 37.26ZM36.1611 95.4629C39.2825 100.994 44.8885 104.391 50.9984 104.391C57.1129 104.391 62.7191 100.994 65.8396 95.4625C63.267 94.4673 60.9022 92.8697 58.959 90.8052C53.2943 84.8009 51.8356 75.8413 55.1956 68.22C52.4609 67.4952 49.531 67.4976 46.8025 68.2192C50.1673 75.8401 48.7102 84.8003 43.0415 90.8064C41.0935 92.87 38.732 94.4667 36.1611 95.4629ZM87.356 61.2098C83.7208 57.4712 78.8894 55.4117 73.7511 55.4117L73.751 55.4115C70.9452 55.4115 68.1543 56.0492 65.6244 57.2614C65.2765 55.828 65.101 54.3471 65.101 52.8481C65.101 51.3459 65.2765 49.8649 65.6268 48.4325C68.1608 49.6447 70.95 50.2808 73.752 50.2808C78.8869 50.2808 83.7184 48.2213 87.3568 44.4804C89.3421 42.4415 90.879 39.9612 91.8365 37.2607C97.1556 40.5398 100.42 46.4273 100.418 52.8483C100.418 59.2719 97.1532 65.1554 91.8356 68.4295C90.8789 65.7331 89.3428 63.2528 87.356 61.2098Z" fill="white"/>
</svg>
