<svg width="300" height="300" viewBox="0 0 300 300" fill="none" xmlns="http://www.w3.org/2000/svg">
<g filter="url(#filter0_f_621_8)">
<path d="M198.94 198.94C225.991 171.889 225.991 128.031 198.94 100.98C171.889 73.9291 128.031 73.9291 100.98 100.98C73.9291 128.031 73.9291 171.889 100.98 198.94C128.031 225.991 171.889 225.991 198.94 198.94Z" fill="#3BB900" fill-opacity="0.58"/>
</g>
<path fill-rule="evenodd" clip-rule="evenodd" d="M102.281 163.39C107.859 166.9 114.563 168.709 121.842 168.709L121.842 168.709C122.949 168.709 124.057 168.655 125.184 168.567C131.605 168.088 138.159 166.234 144.033 163.257C150.48 171.009 156.178 179.623 160.646 188.603L163.355 187.524C162.678 186.162 161.97 184.803 161.233 183.451C161.557 182.322 161.912 181.2 162.297 180.084C164.277 180.359 166.274 180.501 168.259 180.501L168.257 180.501C172.371 180.501 176.446 179.916 180.184 178.781C186.77 176.76 192.011 173.107 195.314 168.249C198.656 163.337 199.605 157.947 200.515 152.752C200.95 150.27 201.405 147.681 202.117 145.145C204.253 137.61 209.336 127.822 216.674 125.109C217.366 124.843 217.761 124.205 217.643 123.549C217.504 122.893 216.891 122.414 216.14 122.379C199.804 121.917 177.178 125.552 163.472 134.684C158.352 138.1 154.356 142.516 151.881 147.324C152.385 141.086 151.099 135.222 148.027 129.966C145.278 125.25 141.204 121.19 135.963 117.892C131.157 114.877 125.501 112.643 119.607 111.42C110.113 109.469 98.3257 109.523 85.5294 111.615C74.3352 113.441 62.7453 116.757 52.9157 120.942C52.2235 121.225 51.8675 121.899 52.0455 122.555C52.2235 123.229 52.8761 123.672 53.6475 123.672C63.675 123.477 75.0276 132.431 81.7123 140.144C83.9244 142.706 85.8651 145.425 87.7455 148.059L87.804 148.141L87.8327 148.181C91.7596 153.665 95.8097 159.321 102.281 163.39ZM163.241 177.519C167.065 167.724 173.224 158.53 181.312 150.609L179.116 148.818C170.879 156.893 164.558 166.266 160.587 176.254C154.492 170.322 151.54 163.667 152.082 156.901C152.675 149.418 157.6 141.918 165.254 136.811C177.099 128.903 196.027 125.304 211.216 125.003C205.263 129.435 201.209 137.521 199.251 144.471C198.537 146.996 198.091 149.504 197.659 151.936L197.659 151.936L197.589 152.326C196.679 157.486 195.809 162.38 192.783 166.848C186.47 176.122 173.766 178.846 163.241 177.519ZM159.518 179.119C159.424 179.389 159.332 179.66 159.241 179.931C158.737 179.072 158.221 178.216 157.694 177.364C158.274 177.956 158.882 178.541 159.518 179.119ZM103.983 161.226C115.835 168.672 130.996 166.715 142.228 161.13C131.589 148.862 119.108 138.962 106.811 133.514L108.136 131.138C118.717 135.837 129.575 143.763 139.543 154.064C141.332 155.915 143.073 157.82 144.76 159.772C145.102 159.574 145.439 159.373 145.772 159.169C150.222 148.903 150.103 139.257 145.396 131.225C140.511 122.874 130.622 116.437 118.933 114.026C100.619 110.249 76.3924 114.859 58.7113 121.544L58.7117 121.544C68.2444 123.583 77.7577 131.243 84.0471 138.513C86.3412 141.167 88.3243 143.943 90.2468 146.634L90.2968 146.704C94.2327 152.219 97.9707 157.449 103.983 161.226ZM150.847 167.333C149.463 165.486 148.03 163.669 146.551 161.887C146.989 161.632 147.422 161.37 147.849 161.102L148.205 160.872L148.364 160.499C148.604 159.957 148.832 159.417 149.049 158.878C149.101 161.742 149.706 164.574 150.847 167.333ZM215.546 122.627H215.526C215.546 122.645 215.546 122.627 215.546 122.627Z" fill="white"/>
<defs>
<filter id="filter0_f_621_8" x="0.691406" y="0.691895" width="298.537" height="298.537" filterUnits="userSpaceOnUse" color-interpolation-filters="sRGB">
<feFlood flood-opacity="0" result="BackgroundImageFix"/>
<feBlend mode="normal" in="SourceGraphic" in2="BackgroundImageFix" result="shape"/>
<feGaussianBlur stdDeviation="40" result="effect1_foregroundBlur_621_8"/>
</filter>
</defs>
</svg>
