<svg width="300" height="300" viewBox="0 0 300 300" fill="none" xmlns="http://www.w3.org/2000/svg">
<g filter="url(#filter0_f_621_9)">
<path d="M198.94 198.94C225.991 171.889 225.991 128.031 198.94 100.98C171.889 73.9291 128.031 73.9291 100.98 100.98C73.9291 128.031 73.9291 171.889 100.98 198.94C128.031 225.991 171.889 225.991 198.94 198.94Z" fill="#0085FF" fill-opacity="0.58"/>
</g>
<path d="M103.133 200.991H126.909C128.35 200.99 129.756 200.524 130.944 199.655C132.131 198.785 133.043 197.552 133.56 196.12C147.361 199.506 161.488 201.141 175.65 200.991C180.796 200.991 184.788 199.621 187.533 197.309C190.168 195.161 191.709 191.825 191.699 188.29C191.696 187.224 191.568 186.164 191.32 185.132C192.657 184.316 193.817 183.206 194.721 181.874C195.829 180.176 196.412 178.15 196.388 176.082C196.333 173.955 195.872 171.862 195.033 169.932C196.749 169 198.191 167.584 199.203 165.838C200.214 164.093 200.755 162.085 200.768 160.033C200.733 157.448 199.947 154.937 198.517 152.848C198.716 152.588 198.948 152.308 199.216 151.996C200.219 150.904 201.061 149.655 201.71 148.293C202.622 146.15 203.061 143.814 202.993 141.464C203.059 139.176 202.496 136.916 201.374 134.964C200.06 132.884 198.097 131.368 195.834 130.684C194.691 130.302 193.504 130.093 192.307 130.064H175.654C175.051 130.063 174.552 130.053 174.17 130.023V130.024C173.952 130.011 173.735 129.98 173.521 129.934L173.45 129.91H173.449C173.532 129.184 173.695 128.473 173.935 127.789C175.72 122.085 176.674 116.124 176.765 110.112C176.762 103.485 175.338 97.7481 172.356 93.5914C170.879 91.5126 168.952 89.8429 166.74 88.726C164.315 87.5457 161.673 86.9574 159.007 87.0024C158.109 86.9874 157.214 87.1146 156.351 87.3805C155.217 87.7154 154.23 88.4663 153.565 89.5009C152.952 90.5495 152.644 91.7686 152.682 93.0037C152.744 98.2727 152.274 103.535 151.28 108.697C150.566 112.716 149.079 116.537 146.915 119.916C142.582 126.168 137.595 132.526 133.103 138.97C132.48 137.804 131.58 136.835 130.492 136.161C129.404 135.486 128.168 135.131 126.91 135.131H103.133C101.241 135.131 99.4265 135.931 98.0889 137.356C96.7513 138.781 96 140.714 96 142.73V193.391C96 195.407 96.7513 197.34 98.0889 198.765C99.4265 200.19 101.241 200.991 103.133 200.991L103.133 200.991ZM98.3773 142.73C98.3773 141.386 98.8782 140.098 99.7704 139.147C100.662 138.198 101.872 137.664 103.133 137.664H126.909C128.17 137.664 129.38 138.198 130.272 139.147C131.163 140.098 131.664 141.387 131.664 142.73V193.391C131.664 194.735 131.163 196.024 130.272 196.974C129.38 197.924 128.17 198.458 126.909 198.458H103.133C101.872 198.458 100.662 197.924 99.7704 196.974C98.8782 196.024 98.3773 194.735 98.3773 193.391V142.73ZM148.828 121.421C151.192 117.758 152.817 113.612 153.601 109.245C154.633 103.902 155.122 98.4577 155.06 93.0039C155.049 92.4765 155.126 91.9508 155.287 91.4517C155.479 90.8668 155.872 90.3818 156.387 90.0947C157.204 89.6803 158.103 89.4877 159.007 89.5354C161.322 89.4904 163.616 89.9966 165.724 91.0161C168.582 92.4977 170.859 95.0014 172.16 98.0899C173.73 101.872 174.491 105.978 174.387 110.112C174.296 115.862 173.38 121.564 171.67 127.017C171.338 127.957 171.136 128.943 171.069 129.944C171.055 130.471 171.197 130.989 171.477 131.425C171.701 131.751 172 132.009 172.346 132.174C172.815 132.383 173.314 132.505 173.823 132.535C174.352 132.585 174.946 132.595 175.646 132.598L192.294 132.597H192.307C193.818 132.648 195.301 133.046 196.655 133.762C197.76 134.35 198.698 135.238 199.376 136.338C200.251 137.88 200.682 139.662 200.616 141.464C200.747 143.902 200.156 146.323 198.925 148.382C198.48 149.057 197.989 149.696 197.456 150.293C196.917 150.881 196.437 151.528 196.023 152.222C195.774 152.675 195.813 153.244 196.12 153.654C197.542 155.439 198.344 157.692 198.39 160.033C198.375 161.804 197.856 163.529 196.9 164.979C195.945 166.428 194.599 167.535 193.041 168.151C192.732 168.283 192.49 168.546 192.371 168.876C192.253 169.208 192.271 169.576 192.419 169.893C193.392 171.797 193.937 173.916 194.011 176.082C194.036 177.631 193.603 179.149 192.772 180.422C191.893 181.697 190.728 182.719 189.384 183.393C188.855 183.675 188.6 184.328 188.788 184.926C189.134 186.01 189.314 187.146 189.321 188.29C189.334 191.052 188.124 193.657 186.057 195.323C183.849 197.188 180.41 198.458 175.65 198.458C161.647 198.609 147.677 196.991 134.031 193.637C134.034 193.554 134.043 193.474 134.043 193.392V142.731C134.043 142.465 134.029 142.201 134.004 141.937C138.678 135.087 144.1 128.241 148.828 121.421L148.828 121.421Z" fill="white"/>
<defs>
<filter id="filter0_f_621_9" x="0.691406" y="0.691895" width="298.537" height="298.537" filterUnits="userSpaceOnUse" color-interpolation-filters="sRGB">
<feFlood flood-opacity="0" result="BackgroundImageFix"/>
<feBlend mode="normal" in="SourceGraphic" in2="BackgroundImageFix" result="shape"/>
<feGaussianBlur stdDeviation="40" result="effect1_foregroundBlur_621_9"/>
</filter>
</defs>
</svg>
