<svg width="300" height="300" viewBox="0 0 300 300" fill="none" xmlns="http://www.w3.org/2000/svg">
<g filter="url(#filter0_f_621_11)">
<path d="M198.94 198.94C225.991 171.889 225.991 128.031 198.94 100.98C171.889 73.9291 128.031 73.9291 100.98 100.98C73.9291 128.031 73.9291 171.889 100.98 198.94C128.031 225.991 171.889 225.991 198.94 198.94Z" fill="#02D6C9" fill-opacity="0.58"/>
</g>
<path d="M105.156 218.857C104.84 219.297 104.081 219.472 103.462 219.246C102.843 219.022 102.597 218.482 102.914 218.042L103.185 217.666C105.528 214.413 106.714 212.764 110.417 211.594C111.692 211.191 112.729 210.909 113.631 210.664C116.227 209.957 117.475 209.617 117.599 208.051C117.803 205.466 119.165 204.829 121.683 204.929C122.59 204.966 123.594 205.121 124.775 205.304L125.188 205.367C127.295 205.691 129.282 205.491 130.985 204.917C132.292 204.477 133.438 203.82 134.356 203.009C134.385 202.979 134.417 202.95 134.453 202.923L134.483 202.895C135.426 202.027 136.109 200.994 136.45 199.873C136.929 198.297 136.727 196.55 135.61 194.848C133.084 194.832 130.46 194.398 128.073 193.592C125.356 192.674 122.931 191.272 121.281 189.455C119.471 187.462 118.597 184.985 119.286 182.113C119.404 181.625 120.056 181.297 120.742 181.38C121.43 181.464 121.892 181.927 121.774 182.415C121.201 184.802 121.917 186.849 123.404 188.486C124.787 190.01 126.84 191.191 129.149 191.971C131.477 192.758 134.052 193.136 136.459 193.045C139.034 192.948 141.403 192.312 143.021 191.062C143.493 190.698 144.29 190.674 144.804 191.01C145.317 191.345 145.35 191.912 144.878 192.277C143.154 193.608 140.825 194.398 138.266 194.704C139.303 196.589 139.451 198.503 138.919 200.252C138.898 200.322 138.876 200.39 138.853 200.459C143.173 198.33 146.838 197.359 150.503 196.389C151.285 196.182 152.066 195.974 153.149 195.67C155.959 194.88 157.309 194.273 157.869 193.548C158.408 192.85 158.313 191.824 158.164 190.287C157.888 187.458 158.984 186.392 161.124 186.287C162.719 186.209 164.736 186.873 167.204 187.686L167.462 187.771C170.693 188.835 173.497 188.868 175.728 188.192C177.423 187.679 178.818 186.753 179.839 185.56C180.892 184.328 181.549 182.809 181.739 181.153C181.898 179.775 181.731 178.309 181.198 176.838C177.773 177.054 174.161 176.565 171.045 174.842C168.421 173.391 166.18 171.071 164.758 167.564C164.568 167.089 164.954 166.594 165.622 166.459C166.29 166.324 166.987 166.598 167.178 167.073C168.433 170.168 170.36 172.188 172.595 173.425C174.964 174.735 177.716 175.17 180.383 175.08C179.503 173.536 178.198 172.023 176.415 170.64C175.945 170.276 175.981 169.711 176.494 169.377C177.007 169.043 177.802 169.069 178.272 169.433C182.933 173.047 184.698 177.466 184.258 181.293C184.036 183.223 183.251 185.012 181.991 186.487C180.699 187.999 178.91 189.178 176.715 189.842C173.85 190.71 170.343 190.697 166.404 189.401L166.146 189.316C164.001 188.609 162.247 188.031 161.291 188.078C160.771 188.104 160.534 188.656 160.681 190.169C160.861 192.019 160.972 193.257 160.079 194.413C159.206 195.544 157.487 196.382 154.076 197.341C153.367 197.54 152.374 197.803 151.379 198.066C146.803 199.279 142.227 200.492 136.316 204.135C135.163 205.153 133.714 205.983 132.06 206.539C129.871 207.275 127.333 207.534 124.653 207.123L124.241 207.059C123.151 206.891 122.224 206.747 121.544 206.719C120.681 206.685 120.209 206.979 120.117 208.149C119.901 210.878 118.158 211.353 114.53 212.341C113.612 212.591 112.555 212.878 111.444 213.229C108.549 214.144 107.499 215.602 105.428 218.48L105.156 218.856L105.156 218.857ZM172.979 96.8834C173.801 96.7359 174.62 96.5789 175.439 96.4229L174.785 94.687C173.976 94.8402 173.168 94.9962 172.357 95.1419L172.979 96.8834ZM129.358 115.51L129.284 115.431L129.238 115.382L129.148 115.28L129.104 115.229L129.061 115.178L129.018 115.126L128.934 115.021L128.852 114.915L128.772 114.808L128.734 114.755L128.696 114.7L128.622 114.591L128.585 114.536L128.513 114.425L128.479 114.369L128.444 114.313L128.378 114.2L128.32 114.096L125.963 114.745L125.996 114.806L126.036 114.877L126.077 114.947L126.118 115.017L126.16 115.087L126.248 115.226L126.337 115.363L126.384 115.431L126.479 115.567L126.528 115.634L126.577 115.701L126.627 115.768L126.679 115.835L126.73 115.9L126.836 116.032L126.89 116.097L126.946 116.162L127.001 116.226L127.115 116.353L127.173 116.417L127.261 116.509L129.361 115.51L129.358 115.51ZM127.889 109.354L127.921 109.269L127.943 109.21L127.991 109.093L128.016 109.035L128.069 108.918L128.097 108.86L128.124 108.803L128.183 108.688L128.213 108.631L128.243 108.574L128.307 108.461L128.34 108.405L128.373 108.35L128.407 108.294L128.443 108.239L128.479 108.184L128.553 108.075L128.591 108.021L128.63 107.967L128.69 107.885L126.467 107.029L126.434 107.072L126.384 107.141L126.333 107.211L126.285 107.28L126.237 107.35L126.189 107.42L126.143 107.491L126.098 107.561L126.054 107.632L126.011 107.703L125.968 107.774L125.927 107.846L125.848 107.991L125.81 108.063L125.773 108.135L125.737 108.208L125.701 108.281L125.667 108.354L125.601 108.501L125.569 108.574L125.508 108.723L125.479 108.797L125.442 108.898L127.888 109.352L127.889 109.354ZM133.68 104.978L133.76 104.96L133.862 104.937L134.068 104.894L134.172 104.873L134.278 104.853L134.384 104.833L134.491 104.814L134.6 104.795L134.709 104.777L134.932 104.744L135.044 104.728L135.158 104.713L135.273 104.697C135.51 104.669 135.746 104.641 135.982 104.611L135.539 102.842C135.305 102.871 135.071 102.9 134.836 102.928L134.699 102.946L134.561 102.964L134.425 102.984L134.29 103.004L134.157 103.025L134.023 103.046L133.891 103.069L133.76 103.092L133.629 103.117L133.499 103.141L133.371 103.166L133.244 103.193L133.117 103.22L132.991 103.248L132.912 103.266L133.682 104.978L133.68 104.978ZM142.891 101.228C142.949 100.978 142.996 100.727 143.048 100.477C143.116 100.152 143.194 99.8299 143.296 99.5104L140.832 99.11C140.722 99.4521 140.637 99.7961 140.563 100.142C140.508 100.406 140.459 100.671 140.398 100.935L142.892 101.228L142.891 101.228ZM146.439 95.2331C146.97 94.8515 147.567 94.5057 148.192 94.2068L146.79 92.7115C146.44 92.8788 146.105 93.0546 145.776 93.2425C145.703 93.2848 145.63 93.3271 145.559 93.3694L145.488 93.4126L145.346 93.4991L145.206 93.5874L145.067 93.6767L144.998 93.7218L144.862 93.8139L144.728 93.907L144.646 93.9653L146.437 95.2341L146.439 95.2331ZM154.6 92.797C155.183 92.8055 155.742 92.8515 156.31 92.9408C156.399 92.9549 156.488 92.9709 156.575 92.9869C156.641 92.9991 156.706 93.0122 156.772 93.0254L157.478 91.3008L157.391 91.2829L157.216 91.2491L157.129 91.2331L156.954 91.203L156.777 91.1748L156.6 91.1485L156.511 91.1363L156.334 91.1137L156.157 91.093L155.977 91.0742L155.888 91.0658L155.798 91.0573L155.709 91.0498L155.529 91.0367L155.349 91.0254L155.169 91.016L154.989 91.0085L154.809 91.0028L154.662 91L154.599 92.7961L154.6 92.797ZM162.221 96.1108C162.992 96.5582 163.851 96.9163 164.792 97.1484L165.612 95.4492C164.946 95.2819 164.361 95.0328 163.815 94.7161L162.223 96.1108H162.221ZM103.005 150.538C102.57 150.517 102.242 150.25 102.271 149.941C102.3 149.632 102.676 149.399 103.111 149.419C104.886 149.507 106.832 149.845 108.904 150.493C110.777 151.078 112.762 151.921 114.831 153.066C115.173 153.256 115.234 153.607 114.967 153.851C114.7 154.094 114.205 154.137 113.863 153.947C111.91 152.866 110.036 152.07 108.269 151.519C106.37 150.925 104.605 150.616 103.008 150.537L103.005 150.538ZM99.7331 213.21C99.339 213.743 98.9554 214.279 98.5692 214.815L100.819 215.635C101.2 215.105 101.581 214.573 101.971 214.045L99.7331 213.21ZM130.779 199.356C130.542 199.6 130.235 199.827 129.934 200.032C129.714 200.181 129.488 200.322 129.254 200.459L130.863 201.844C131.182 201.657 131.49 201.463 131.787 201.258C132.173 200.988 132.547 200.697 132.855 200.38L130.779 199.356ZM123.16 202.294C122.412 202.311 121.678 202.265 120.944 202.158L120.432 203.918C121.36 204.053 122.293 204.112 123.241 204.091L123.16 202.294ZM113.341 204.188C113.237 204.713 113.279 205.258 113.02 205.763V205.762L115.383 206.401C115.762 205.685 115.704 205.155 115.846 204.437L113.343 204.187L113.341 204.188ZM107.428 207.959C106.605 208.198 105.756 208.446 104.982 208.76L106.238 210.319C106.891 210.047 107.688 209.824 108.385 209.622L107.428 207.959ZM119.582 139.688C119.51 139.669 119.44 139.646 119.371 139.617C116.438 138.388 112.978 137.913 109.624 138.143C106.656 138.345 103.782 139.096 101.437 140.359C99.1127 141.611 97.3074 143.372 96.4501 145.607C95.6526 147.686 95.6724 150.185 96.8456 153.084C98.9234 152.483 101.476 152.299 104.367 152.73C107.335 153.172 110.675 154.267 114.231 156.237C114.779 156.541 114.877 157.103 114.448 157.493C114.02 157.882 113.229 157.952 112.68 157.647C109.454 155.861 106.47 154.875 103.853 154.485C100.945 154.051 98.5111 154.362 96.7359 155.124C96.1473 155.377 95.6328 155.677 95.199 156.016C94.2507 156.755 93.6766 157.681 93.5536 158.675C93.4293 159.683 93.7679 160.767 94.6514 161.806C95.1249 162.365 95.7545 162.91 96.5507 163.425C97.8733 164.282 98.8639 165.208 98.9764 166.214C99.0994 167.31 98.2595 168.343 95.8603 169.232C94.9874 169.555 94.3301 170.145 93.9452 170.826C93.6304 171.383 93.5021 171.993 93.5894 172.57C93.6714 173.11 93.9425 173.611 94.4293 173.989C94.8909 174.348 95.5733 174.611 96.5058 174.711C97.6459 174.833 98.3455 174.961 98.95 175.541C99.4327 176.005 99.647 176.661 99.8255 177.83C99.9763 178.816 100.524 179.731 101.381 180.41C101.876 180.802 102.477 181.114 103.166 181.311C103.853 181.508 104.635 181.589 105.497 181.523C106.514 181.444 107.638 181.161 108.85 180.621C105.644 179.767 103.044 177.954 101.112 175.066C100.815 174.618 101.084 174.084 101.714 173.873C102.344 173.662 103.096 173.853 103.392 174.301C105.334 177.205 108.002 178.8 111.315 179.258C114.755 179.734 118.969 179.037 123.854 177.344C124.481 177.127 125.238 177.312 125.543 177.758C125.849 178.204 125.588 178.742 124.96 178.959C120.126 180.633 115.809 181.412 112.075 181.149C109.825 182.5 107.683 183.158 105.762 183.306C104.474 183.406 103.286 183.278 102.228 182.976C101.172 182.674 100.256 182.199 99.5046 181.604C98.2944 180.646 97.5246 179.373 97.317 178.021C97.1887 177.185 97.0869 176.764 96.9255 176.609C96.8859 176.571 96.6121 176.538 96.1306 176.487C94.5885 176.322 93.414 175.85 92.5727 175.197C91.6998 174.519 91.2171 173.661 91.0808 172.76C90.9499 171.896 91.139 170.985 91.6046 170.16C92.2011 169.106 93.2592 168.179 94.6956 167.647C96.0208 167.157 96.5009 166.731 96.4586 166.355C96.4057 165.89 95.7457 165.33 94.8516 164.752C93.8663 164.114 93.0833 163.433 92.4881 162.733C91.3136 161.351 90.8652 159.892 91.0345 158.52C91.2065 157.134 92.008 155.842 93.3319 154.809C93.7115 154.514 94.1321 154.24 94.5911 153.992C93.1124 150.587 93.0661 147.621 94.0184 145.138C95.0315 142.498 97.1662 140.416 99.9132 138.935C102.639 137.466 105.964 136.594 109.385 136.36C113.216 136.099 117.178 136.639 120.561 138.035L120.574 138.019C121.709 136.662 123.549 135.601 126.36 135.158C127.039 135.052 127.712 135.357 127.862 135.839C128.011 136.321 127.583 136.799 126.904 136.906C124.863 137.226 123.545 137.977 122.747 138.931C121.698 140.186 121.484 141.816 121.708 143.333C122.067 145.783 123.156 146.908 124.517 147.358C125.928 147.823 127.805 147.645 129.485 147.433C131.479 147.181 133.081 147.351 134.32 147.795C135.194 148.109 135.875 148.552 136.378 149.081C136.867 149.595 137.182 150.184 137.337 150.805C137.636 152 137.334 153.332 136.541 154.449C134.633 157.135 134.144 159.415 134.704 161.155C135.05 162.237 135.813 163.106 136.892 163.725C137.992 164.354 139.437 164.736 141.126 164.828C144.257 164.998 148.172 164.185 152.296 162.15C153.727 161.444 154.528 160.948 154.965 160.483C155.356 160.065 155.487 159.603 155.577 158.956C155.795 157.381 156.246 156.467 157.086 155.909C158.013 155.292 159.135 155.209 160.706 155.273C164.14 155.412 166.881 155.219 168.598 154.351C170.213 153.535 170.999 152.007 170.7 149.414C170.532 147.951 169.909 146.442 168.73 145.235C167.97 144.456 166.974 143.801 165.716 143.372C164.442 142.937 162.874 142.725 160.976 142.835C157.644 143.029 153.362 144.207 147.959 146.87C147.386 147.151 146.602 147.049 146.206 146.642C145.811 146.235 145.955 145.677 146.528 145.396C152.334 142.535 157.039 141.263 160.78 141.046C163.14 140.909 165.138 141.189 166.804 141.758C168.487 142.333 169.807 143.195 170.804 144.217C172.255 145.703 173.017 147.524 173.218 149.274C173.377 150.655 173.264 151.815 172.907 152.783C177.128 154.15 180.711 154.587 183.56 153.923C186.533 153.23 188.816 151.278 190.311 147.858C190.516 147.385 191.221 147.119 191.887 147.265C192.552 147.411 192.926 147.912 192.721 148.384C191.332 151.56 189.274 153.683 186.613 154.87C187.432 155.767 188.333 156.344 189.243 156.668C189.998 156.937 190.773 157.034 191.514 156.996C192.26 156.959 192.976 156.783 193.613 156.511C194.451 156.152 195.138 155.634 195.553 155.043C195.975 154.445 195.955 153.952 195.935 153.469C195.909 152.811 195.882 152.165 196.46 151.29C196.713 150.907 197.037 150.545 197.402 150.214C197.795 149.857 198.235 149.535 198.685 149.259C199.415 148.813 200.083 148.495 200.703 148.199C201.622 147.762 202.419 147.383 202.995 146.7C203.035 146.654 203.065 146.616 203.088 146.585C203.609 145.874 203.582 144.977 203.166 144.134C202.735 143.262 201.895 142.47 200.81 142.007C200.723 141.971 200.646 141.94 200.58 141.915C199.845 141.643 199.254 141.318 198.788 140.955C197.857 140.229 197.43 139.367 197.381 138.491C197.334 137.655 197.641 136.811 198.185 136.07C198.584 135.524 199.112 135.033 199.719 134.639C201.769 133.311 202.538 131.833 202.309 130.457C202.157 129.538 201.568 128.65 200.628 127.867C199.644 127.048 198.285 126.346 196.637 125.84C193.209 124.787 188.57 124.587 183.448 125.925C182.288 126.461 180.97 126.837 179.56 127.067C177.331 127.428 174.881 127.41 172.509 127.066C170.146 126.723 167.851 126.055 165.923 125.119C161.928 123.18 159.471 120.113 161.026 116.368C161.969 114.097 163.648 112.357 165.65 111.185C167.334 110.199 169.246 109.614 171.154 109.447C173.103 109.277 175.047 109.54 176.751 110.257C178.326 110.92 179.679 111.968 180.614 113.414C180.904 113.863 180.625 114.395 179.992 114.6C179.36 114.806 178.613 114.608 178.323 114.159C177.617 113.067 176.618 112.286 175.466 111.802C174.259 111.294 172.866 111.108 171.459 111.231C170.011 111.358 168.549 111.808 167.249 112.568C165.615 113.524 164.236 114.968 163.445 116.875C162.256 119.738 164.203 122.115 167.344 123.64C168.999 124.442 170.975 125.017 173.012 125.312C175.041 125.606 177.121 125.625 178.997 125.32C179.121 125.299 179.245 125.278 179.368 125.254C180.313 124.908 181.249 124.609 182.174 124.355C183.949 123.484 185.201 122.104 185.473 120.131C185.833 117.535 186.737 117.336 189.129 116.809C189.92 116.635 190.939 116.41 192.239 115.944C192.544 115.834 192.83 115.717 193.094 115.592C194.443 114.953 195.191 114.12 195.363 113.124C195.551 112.04 195.1 110.734 194.044 109.249C193.646 108.688 193.162 108.103 192.592 107.494C189.477 104.168 185.652 102.067 180.872 101.656C178.57 101.459 176.026 101.645 173.214 102.263C173.18 102.272 173.146 102.279 173.111 102.287C169.978 102.987 166.51 104.222 162.669 106.062C162.091 106.339 161.307 106.231 160.917 105.82C160.526 105.409 160.679 104.852 161.258 104.574C162.493 103.982 163.695 103.449 164.866 102.973C163.497 102.689 162.225 102.051 160.914 100.877C160.428 100.442 159.857 100.115 159.23 99.8837C158.038 99.4447 156.627 99.3404 155.219 99.5068C153.766 99.6778 152.326 100.136 151.126 100.812C150.238 101.313 149.489 101.93 148.977 102.632C148.047 103.905 147.861 104.835 147.719 105.533C147.341 107.407 147.194 108.134 141.496 108.805C138.255 109.187 136.407 110.237 135.674 111.455C135.348 111.999 135.238 112.58 135.32 113.15C135.404 113.731 135.686 114.299 136.141 114.807C137.173 115.957 139.096 116.796 141.642 116.766C144.564 116.634 147.786 117.01 151.206 117.695C151.876 117.829 152.268 118.324 152.08 118.8C151.892 119.277 151.195 119.555 150.525 119.422C145.752 118.465 141.478 118.153 138.122 119.121C135.098 119.993 132.734 121.962 131.308 125.531C135.39 125.984 140.127 125.853 144.815 124.031C145.426 123.794 146.19 123.955 146.524 124.389C146.857 124.823 146.631 125.366 146.02 125.603C136.485 129.308 127.1 126.846 122.124 125.539C120.951 125.231 120.046 124.994 119.607 124.954C116.049 124.628 113.349 126.022 111.938 127.782C111.156 128.757 110.771 129.833 110.856 130.783C110.931 131.628 111.391 132.36 112.296 132.776C113.731 133.437 116.309 133.416 120.307 132.1C123.266 131.125 125.908 130.814 128.323 131.098C130.768 131.384 132.924 132.271 134.888 133.687C135.659 134.243 136.184 134.736 136.669 135.193C137.521 135.993 138.233 136.661 140.037 137.193C142.932 138.046 147.107 138.205 150.906 137.418C152.647 137.057 154.297 136.498 155.687 135.716C157.048 134.951 158.168 133.964 158.888 132.732C159.979 130.863 160.154 128.413 158.871 125.286C158.678 124.811 159.061 124.315 159.73 124.177C160.398 124.04 161.097 124.312 161.291 124.788C162.751 128.347 162.519 131.197 161.22 133.42C160.328 134.947 158.94 136.169 157.249 137.12C155.589 138.053 153.645 138.715 151.608 139.137C147.263 140.038 142.443 139.843 139.07 138.849C136.632 138.131 135.733 137.285 134.656 136.274C134.212 135.856 133.732 135.405 133.092 134.944C131.505 133.799 129.804 133.089 127.92 132.868C126.008 132.643 123.85 132.912 121.366 133.73C116.46 135.345 113.04 135.252 110.925 134.279C109.289 133.527 108.464 132.291 108.339 130.897C108.224 129.608 108.724 128.175 109.746 126.9C111.605 124.582 115.185 122.746 119.924 123.181C120.679 123.25 121.687 123.514 122.995 123.857C124.536 124.261 126.533 124.786 128.827 125.181C130.407 121.121 133.127 118.775 136.661 117.619C135.563 117.137 134.671 116.498 134.019 115.772C133.351 115.026 132.938 114.19 132.813 113.336C132.688 112.471 132.856 111.586 133.354 110.757C134.4 109.017 136.872 107.537 141.092 107.039C144.959 106.584 145.033 106.221 145.221 105.284C145.387 104.458 145.61 103.357 146.735 101.815C147.42 100.876 148.402 100.063 149.556 99.4125C151.087 98.5497 152.937 97.9642 154.814 97.7424C156.734 97.5159 158.69 97.67 160.386 98.2941C161.323 98.6399 162.175 99.1249 162.888 99.764C165.294 101.919 167.869 101.429 172.191 100.608L172.459 100.557L172.464 100.556C175.633 99.858 178.524 99.6503 181.169 99.8777C186.764 100.358 191.171 102.742 194.697 106.508C195.319 107.171 195.853 107.817 196.299 108.445C197.586 110.255 198.123 111.904 197.874 113.345C197.609 114.876 196.496 116.141 194.491 117.089C194.15 117.251 193.778 117.403 193.378 117.547C191.897 118.079 190.758 118.33 189.875 118.524C188.646 118.795 188.183 118.898 187.987 120.31C187.819 121.525 187.366 122.569 186.691 123.45C190.863 122.915 194.64 123.281 197.64 124.202C199.653 124.821 201.325 125.688 202.548 126.707C203.815 127.761 204.61 128.977 204.822 130.251C205.143 132.183 204.138 134.211 201.422 135.97C201.024 136.228 200.68 136.548 200.421 136.902C200.072 137.378 199.874 137.91 199.903 138.425C199.929 138.899 200.158 139.363 200.658 139.752C200.936 139.969 201.296 140.166 201.749 140.334C201.883 140.383 202.002 140.431 202.108 140.476C203.705 141.157 204.933 142.301 205.549 143.55C206.181 144.829 206.187 146.24 205.323 147.417C205.266 147.495 205.212 147.565 205.162 147.624C204.293 148.653 203.279 149.135 202.109 149.692C201.551 149.957 200.95 150.243 200.338 150.618C200.001 150.825 199.675 151.063 199.391 151.321C199.136 151.553 198.912 151.8 198.746 152.052C198.421 152.541 198.439 152.979 198.457 153.424C198.486 154.128 198.515 154.844 197.808 155.847C197.176 156.743 196.155 157.523 194.919 158.052C193.955 158.464 192.855 158.73 191.695 158.79C190.531 158.849 189.311 158.696 188.12 158.273C186.747 157.784 185.429 156.938 184.31 155.64C180.843 156.439 176.683 155.973 171.917 154.438C171.423 154.988 170.801 155.443 170.063 155.816C167.8 156.96 164.541 157.229 160.572 157.068C159.666 157.031 159.072 157.043 158.808 157.219C158.457 157.452 158.243 158.027 158.088 159.136C157.959 160.067 157.748 160.755 157.07 161.478C156.436 162.152 155.439 162.791 153.739 163.629C153.273 163.859 152.807 164.075 152.343 164.278C152.376 164.338 152.401 164.4 152.417 164.464C154.458 172.935 148.998 175.276 143.219 177.753C138.564 179.749 133.671 181.846 133.386 188.142C133.365 188.637 132.783 189.025 132.087 189.009C131.391 188.994 130.845 188.58 130.867 188.086C131.199 180.811 136.689 178.457 141.917 176.216C146.838 174.106 151.492 172.11 150.023 165.186C146.735 166.323 143.617 166.767 140.94 166.621C138.734 166.501 136.813 165.984 135.314 165.125C133.794 164.255 132.724 163.045 132.246 161.553C131.565 159.43 132.1 156.731 134.29 153.647C134.845 152.867 135.056 151.943 134.85 151.118C134.755 150.74 134.57 150.387 134.286 150.088C134.017 149.805 133.652 149.566 133.186 149.399C132.415 149.123 131.342 149.026 129.922 149.206C127.864 149.466 125.533 149.673 123.462 148.99C121.341 148.289 119.674 146.733 119.202 143.52C119.017 142.264 119.092 140.928 119.583 139.692L119.582 139.688ZM190.381 174.409C189.83 174.712 189.038 174.64 188.612 174.248C188.186 173.857 188.288 173.294 188.84 172.991C191.595 171.473 192.589 169.386 192.288 167.491C192.152 166.638 191.752 165.822 191.133 165.116C190.521 164.419 189.7 163.832 188.712 163.427C186.703 162.605 183.948 162.514 180.771 163.725C180.157 163.959 179.392 163.797 179.062 163.36C178.732 162.924 178.961 162.381 179.575 162.146C183.625 160.602 187.249 160.764 189.966 161.876C191.332 162.436 192.453 163.231 193.276 164.169C194.091 165.098 194.617 166.171 194.796 167.295C195.189 169.758 193.916 172.461 190.381 174.408L190.381 174.409ZM141.424 182.575C141.177 182.83 140.686 182.894 140.329 182.718C139.97 182.542 139.88 182.193 140.128 181.94C141.978 180.033 144.469 179.081 146.905 178.152C149.906 177.006 152.818 175.894 153.968 172.942C154.084 172.644 154.518 172.469 154.937 172.551C155.356 172.634 155.602 172.942 155.486 173.24C154.157 176.657 150.953 177.879 147.652 179.14C145.38 180.007 143.057 180.894 141.425 182.577L141.424 182.575Z" fill="white"/>
<defs>
<filter id="filter0_f_621_11" x="0.691406" y="0.691895" width="298.537" height="298.537" filterUnits="userSpaceOnUse" color-interpolation-filters="sRGB">
<feFlood flood-opacity="0" result="BackgroundImageFix"/>
<feBlend mode="normal" in="SourceGraphic" in2="BackgroundImageFix" result="shape"/>
<feGaussianBlur stdDeviation="40" result="effect1_foregroundBlur_621_11"/>
</filter>
</defs>
</svg>
