<svg width="87" height="114" viewBox="0 0 87 114" fill="none" xmlns="http://www.w3.org/2000/svg">
<path d="M34.606 112.561C36.3957 113.193 37.6057 113.389 37.6554 113.396C39.2554 113.632 40.7946 113.739 42.2749 113.739C42.7281 113.739 43.1762 113.728 43.6175 113.709C44.0587 113.722 44.5051 113.742 44.9387 113.742C74.5729 113.742 84.3452 84.0487 84.5422 83.427C94.0385 54.283 72.969 27.383 72.7542 27.1159C72.5062 26.8046 72.0778 26.6995 71.7118 26.8628C71.3475 27.0261 71.1389 27.4161 71.2064 27.8094C72.1984 33.6183 70.6224 39.6316 70.6019 39.7085C68.7488 47.2456 63.6393 47.6741 59.6785 46.7051C58.2316 46.3503 56.9566 45.7466 55.8902 44.9077C47.9152 38.6378 52.4741 23.4507 52.5201 23.302C56.9822 9.02233 43.3445 0.22202 43.206 0.134455C42.8742 -0.0741954 42.4415 -0.037427 42.1507 0.22681C41.86 0.491038 41.7805 0.91689 41.9566 1.26836C43.6823 4.70179 46.6282 13.2342 36.7224 18.2744C34.7718 19.2672 33.1754 20.3387 31.8422 21.5496C20.474 31.8709 23.7483 47.7579 23.8851 48.3861C23.9381 48.7085 23.9826 49.0215 24.0219 49.3285C24.6077 53.93 21.4959 56.5655 18.1516 57.1358C14.8738 57.6951 10.9036 56.2183 9.92436 51.6562C9.15475 48.0671 9.40957 44.7663 9.41215 44.7339C9.44379 44.3457 9.21547 43.9848 8.85289 43.8455C8.49118 43.7078 8.07899 43.8241 7.84298 44.1319C-8.80384 65.9703 6.20028 91.8003 6.35249 92.0564C14.3419 105.602 26.5796 110.669 34.6054 112.562L34.606 112.561ZM41.2366 74.201L41.0023 73.7751C40.8852 73.5819 29.8412 55.0751 40.2584 44.0292C40.4832 48.5673 42.2269 59.5644 53.2084 68.4468C53.2665 68.4981 59.0652 73.7289 63.2569 80.5588C68.7348 89.4854 69.0205 96.7884 64.0821 102.294C63.9966 102.397 56.4355 111.375 43.5967 111.956C43.2999 111.947 43.0109 111.948 42.7108 111.934H42.7073C42.5645 111.934 39.2851 111.904 34.6084 110.759C29.2998 108.809 19.5102 102.918 19.6052 85.9951C20.0858 86.6758 20.6784 87.4412 21.3805 88.2245C26.3557 93.7795 33.0444 93.1304 37.4647 90.022C41.7643 86.999 44.7786 80.7585 41.2365 74.1996L41.2366 74.201ZM7.64657 47.4454C7.70216 48.7307 7.85352 50.3375 8.21525 52.0229C9.43637 57.7129 14.3798 59.5566 18.4486 58.8613C22.4814 58.1738 26.4901 54.8267 25.7625 49.1067C25.7206 48.7801 25.6727 48.4466 25.6085 48.0601C25.5752 47.9053 22.394 32.4958 33.0225 22.8456C34.2393 21.7408 35.7101 20.7557 37.5196 19.8347C46.483 15.2734 46.1034 8.0493 44.7582 3.58544C48.2172 6.73407 53.7498 13.5016 50.8501 22.7815C50.6432 23.4511 45.8886 39.2692 54.8102 46.284C56.075 47.2777 57.5731 47.9917 59.2647 48.4056C62.3833 49.1684 69.9034 49.891 72.3003 40.1434C72.3567 39.9304 73.453 35.7642 73.2726 30.8652C78.1673 38.2288 90.3837 59.8624 82.8783 82.8877C82.8774 82.8911 82.8766 82.8945 82.8749 82.898C82.7953 83.1519 76.0227 103.981 56.463 110.229C62.1821 107.265 65.3666 103.491 65.4102 103.437C68.221 100.303 69.5292 96.5857 69.2994 92.3879C68.6213 80.0252 54.9588 67.6616 54.3441 67.1143C41.1417 56.4329 41.9926 42.2108 42.0038 42.0685C42.0286 41.7179 41.8404 41.3852 41.5266 41.2253C41.2128 41.0645 40.8339 41.1099 40.5654 41.3356C26.6148 53.1116 39.376 74.4725 39.4905 74.6564L39.6966 75.0318C42.747 80.6817 40.2696 85.9124 36.46 88.5915C32.6734 91.2535 26.9467 91.8128 22.6873 87.0582C20.694 84.8332 19.6354 82.7176 19.6251 82.6962C19.4498 82.3413 19.0582 82.1506 18.6691 82.2259C18.2809 82.3028 17.9927 82.6312 17.9662 83.0263C17.0811 96.274 21.768 103.819 26.7895 108.081C20.311 105.178 13.1271 100.091 7.86377 91.1639C7.72182 90.9236 -5.67295 67.8234 7.64742 47.4448L7.64657 47.4454Z" fill="white"/>
</svg>
