<svg width="300" height="300" viewBox="0 0 300 300" fill="none" xmlns="http://www.w3.org/2000/svg">
<g filter="url(#filter0_f_621_12)">
<path d="M198.94 198.94C225.991 171.889 225.991 128.031 198.94 100.98C171.889 73.9291 128.031 73.9291 100.98 100.98C73.9291 128.031 73.9291 171.889 100.98 198.94C128.031 225.991 171.889 225.991 198.94 198.94Z" fill="#FE0202" fill-opacity="0.58"/>
</g>
<path fill-rule="evenodd" clip-rule="evenodd" d="M149.573 97.0009C120.005 97.0009 96 121.006 96 150.574C96 180.143 120.005 204.148 149.573 204.148V204.147C150.015 204.154 150.441 203.984 150.755 203.674C151.07 203.364 151.247 202.942 151.247 202.501C151.247 202.059 151.07 201.637 150.755 201.327C150.441 201.017 150.015 200.847 149.573 200.854C121.784 200.854 99.2924 178.362 99.2924 150.573C99.2924 122.784 121.784 100.292 149.573 100.292C161.024 100.292 171.562 104.119 180.01 110.557L177.819 113.569L187.743 114.49L183.812 105.346L181.95 107.897C172.956 101.064 161.733 97 149.573 97L149.573 97.0009ZM149.683 109.658C148.774 109.672 148.049 110.419 148.062 111.328V145.121C147.055 145.493 146.185 146.166 145.57 147.047C144.956 147.929 144.626 148.977 144.626 150.051C144.628 151.024 144.9 151.977 145.41 152.806L129.804 171.712V171.711C129.513 172.046 129.369 172.485 129.405 172.927C129.442 173.369 129.655 173.779 129.997 174.061C130.339 174.344 130.782 174.476 131.223 174.429C131.665 174.381 132.068 174.157 132.341 173.808L147.93 154.929H147.931C148.552 155.179 149.216 155.308 149.886 155.31C151.28 155.31 152.618 154.756 153.604 153.77C154.59 152.784 155.143 151.446 155.144 150.052C155.143 148.914 154.774 147.807 154.09 146.897C153.406 145.987 152.446 145.324 151.354 145.006V111.328C151.361 110.882 151.186 110.453 150.872 110.139C150.556 109.824 150.128 109.651 149.682 109.658L149.683 109.658ZM191.202 117.76L189.89 118.296L189.48 119.653L189.774 120.366L190.953 122.001L190.966 122.018L191.622 123.01L192.838 123.739L194.169 123.252L194.632 121.915L194.366 121.191L193.674 120.145L193.636 120.091L192.444 118.439L191.203 117.759L191.202 117.76ZM198.076 129.245L196.677 129.457L195.961 130.682L196.077 131.442L196.499 132.471L196.508 132.493L197.183 134.358L197.198 134.398L197.204 134.42L197.215 134.415L198.164 135.431L199.577 135.33L200.389 134.17L200.335 133.401L200.32 133.36L200.301 133.298L199.593 131.348L199.57 131.286L199.124 130.197L198.076 129.245ZM200.447 141.956L199.456 142.97L199.386 143.737L199.466 144.268L199.468 144.296L199.68 146.334V146.351L199.714 146.876L200.403 148.113L201.796 148.36L202.865 147.432L203 146.673L202.966 146.131L202.961 146.062L202.738 143.93L202.732 143.861L202.644 143.263L201.857 142.086L200.447 141.955V141.956ZM200.987 154.995L199.77 155.718L199.505 156.442L199.359 157.666L199.038 159.623L199.43 160.984L200.735 161.535L201.984 160.868L202.287 160.159L202.614 158.168L202.625 158.093L202.773 156.826L202.316 155.486L200.987 154.995ZM198.293 167.766L196.923 168.131L196.469 168.755L195.594 170.866L195.198 171.71L195.209 173.125L196.312 174.01L197.697 173.71L198.18 173.107L198.589 172.235L198.619 172.166L199.511 170.014L199.438 168.599L198.294 167.766L198.293 167.766ZM192.36 179.407L190.945 179.456L190.364 179.964L189.968 180.524L189.963 180.528L188.596 182.288L188.451 182.462L188.084 183.829L188.918 184.976L190.332 185.049L190.956 184.596L191.102 184.425L191.147 184.367L192.566 182.547L192.609 182.489L193.048 181.87L193.293 180.474L192.36 179.407ZM182.391 188.907L181.696 189.244L180.62 190.131L180.599 190.148L179.16 191.226L178.504 192.482L179.066 193.781L180.429 194.165L181.139 193.858L182.635 192.735L182.691 192.69L183.789 191.788L184.389 190.504L183.772 189.229L182.392 188.907L182.391 188.907ZM171.757 195.933L170.998 196.075L169.084 196.932L169.071 196.937L168.043 197.344L167.076 198.379L167.271 199.783L168.484 200.514L169.25 200.407L170.292 199.995L170.362 199.967L172.342 199.08L173.262 198.002L173 196.609L171.757 195.934L171.757 195.933ZM158.857 199.989L158.069 200.141L155.715 200.486L154.536 201.275L154.408 202.685L155.421 203.673L156.191 203.744L158.578 203.395L158.656 203.382L159.483 203.221L160.624 202.379L160.686 200.964L159.627 200.023L158.858 199.989L158.857 199.989Z" fill="white"/>
<defs>
<filter id="filter0_f_621_12" x="0.691406" y="0.691895" width="298.537" height="298.537" filterUnits="userSpaceOnUse" color-interpolation-filters="sRGB">
<feFlood flood-opacity="0" result="BackgroundImageFix"/>
<feBlend mode="normal" in="SourceGraphic" in2="BackgroundImageFix" result="shape"/>
<feGaussianBlur stdDeviation="40" result="effect1_foregroundBlur_621_12"/>
</filter>
</defs>
</svg>
