<svg width="75" height="65" viewBox="0 0 75 65" fill="none" xmlns="http://www.w3.org/2000/svg">
<path d="M68.6059 0.573791C68.6059 0.573791 75.5439 -2.23966 74.9658 4.59328C74.773 7.40689 73.0386 17.2544 71.6895 27.9057L67.0641 59.4581C67.0641 59.4581 66.6787 64.0804 63.2097 64.8842C59.7405 65.6881 54.5372 62.0708 53.5734 61.2668C52.8026 60.664 39.1193 51.6202 34.3011 47.1988C32.952 45.9931 31.4102 43.5814 34.4937 40.7678L54.7299 20.6709C57.0426 18.2593 59.3551 12.6321 49.719 19.4651L22.7378 38.5572C22.7378 38.5572 19.6541 40.5668 13.8725 38.7582L1.3454 34.7388C1.3454 34.7388 -3.27999 31.7243 4.6217 28.7096C23.8941 19.264 47.5992 9.61741 68.6059 0.573791Z" fill="white"/>
</svg>
