<svg width="107" height="108" viewBox="0 0 107 108" fill="none" xmlns="http://www.w3.org/2000/svg">
<path fill-rule="evenodd" clip-rule="evenodd" d="M53.5733 0.000922234C24.0048 0.000922234 0 24.0057 0 53.5742C0 83.1427 24.0048 107.148 53.5733 107.148V107.147C54.015 107.154 54.4407 106.984 54.7553 106.674C55.0699 106.364 55.2467 105.942 55.2467 105.501C55.2467 105.059 55.0699 104.637 54.7553 104.327C54.4406 104.017 54.015 103.847 53.5733 103.854C25.7843 103.854 3.29236 81.3624 3.29236 53.5733C3.29236 25.7842 25.7843 3.29234 53.5733 3.29234C65.024 3.29234 75.5616 7.11912 84.01 13.5572L81.819 16.5688L91.7433 17.4905L87.8123 8.34632L85.9497 10.8971C76.9555 4.0641 65.7331 0 53.5729 0L53.5733 0.000922234ZM53.6828 12.6581C52.7741 12.6719 52.0492 13.419 52.0622 14.3277V48.1214C51.0548 48.4934 50.1851 49.1655 49.5704 50.0467C48.9564 50.9285 48.6265 51.9765 48.6265 53.0513C48.628 54.0243 48.8998 54.9774 49.4104 55.8057L33.8036 74.7119V74.7111C33.5127 75.0464 33.3688 75.4851 33.4048 75.9268C33.4415 76.3692 33.6551 76.7788 33.9973 77.0613C34.3395 77.3438 34.7819 77.4762 35.2229 77.4287C35.6646 77.3813 36.068 77.157 36.3413 76.8079L51.9304 57.9286H51.9312C52.552 58.1789 53.2157 58.3083 53.8856 58.3098C55.2804 58.3098 56.6176 57.7556 57.6038 56.7696C58.5899 55.7836 59.1433 54.4463 59.144 53.0521C59.1433 51.9138 58.7735 50.8069 58.0899 49.8974C57.4063 48.9872 56.4463 48.3242 55.3539 48.0058V14.3277C55.3608 13.8822 55.1863 13.4535 54.8716 13.1388C54.5562 12.8242 54.1275 12.6512 53.682 12.6581L53.6828 12.6581ZM95.2018 20.7604L93.8897 21.2963L93.4801 22.6528L93.7741 23.3663L94.953 25.0014L94.966 25.0183L95.622 26.0104L96.8377 26.7392L98.1689 26.2523L98.6321 24.9149L98.3664 24.1907L97.6744 23.145L97.6361 23.0915L96.4442 21.4387L95.2033 20.7589L95.2018 20.7604ZM102.076 32.2454L100.677 32.4575L99.961 33.6816L100.077 34.4425L100.499 35.4714L100.508 35.4928L101.183 37.3576L101.198 37.3982L101.204 37.4196L101.215 37.415L102.164 38.4309L103.577 38.3298L104.389 37.17L104.335 36.4007L104.32 36.3601L104.301 36.2981L103.593 34.3476L103.57 34.2855L103.124 33.197L102.076 32.2454ZM104.447 44.9561L103.456 45.9697L103.386 46.7367L103.466 47.268L103.468 47.2955L103.68 49.3341V49.3509L103.714 49.8761L104.403 51.1131L105.796 51.3596L106.865 50.4318L107 49.6732L106.966 49.1312L106.961 49.0623L106.738 46.9295L106.732 46.8606L106.644 46.2627L105.857 45.0861L104.447 44.9552V44.9561ZM104.987 57.9952L103.77 58.7179L103.505 59.442L103.359 60.6661L103.038 62.6228L103.43 63.9839L104.735 64.5351L105.984 63.8683L106.287 63.1587L106.614 61.1676L106.625 61.0926L106.773 59.8256L106.316 58.486L104.987 57.9952ZM102.293 70.7664L100.923 71.1308L100.469 71.7547L99.5944 73.8659L99.1978 74.7103L99.2085 76.125L100.312 77.0099L101.697 76.7099L102.18 76.1074L102.589 75.2347L102.619 75.1658L103.511 73.014L103.438 71.5993L102.294 70.7657L102.293 70.7664ZM96.3601 82.4069L94.9454 82.4559L94.3644 82.9642L93.9679 83.5238L93.9633 83.5284L92.596 85.2883L92.4506 85.4621L92.0839 86.8293L92.9176 87.9761L94.3323 88.0488L94.9562 87.5964L95.1016 87.4249L95.1468 87.3667L96.566 85.5471L96.6089 85.4889L97.0483 84.8696L97.2925 83.474L96.3601 82.4069ZM86.3907 91.9071L85.6964 92.2439L84.6201 93.1311L84.5986 93.148L83.1602 94.2258L82.5042 95.4821L83.0661 96.7812L84.4295 97.1647L85.1391 96.8585L86.6349 95.7355L86.6908 95.6903L87.7886 94.7877L88.3887 93.5039L87.7717 92.2286L86.3915 91.9071L86.3907 91.9071ZM75.7568 98.9331L74.9982 99.0747L73.0844 99.9321L73.0714 99.9367L72.0425 100.344L71.0757 101.379L71.2709 102.783L72.4842 103.514L73.2497 103.407L74.2916 102.995L74.362 102.967L76.3423 102.08L77.2617 101.002L76.9999 99.6091L75.7567 98.9339L75.7568 98.9331ZM62.8571 102.989L62.0686 103.141L59.7153 103.486L58.5364 104.275L58.4078 105.685L59.4214 106.673L60.1907 106.744L62.5785 106.395L62.6558 106.382L63.4833 106.221L64.6239 105.379L64.686 103.964L63.6272 103.023L62.8579 102.989L62.8571 102.989Z" fill="white"/>
</svg>
