<svg width="300" height="300" viewBox="0 0 300 300" fill="none" xmlns="http://www.w3.org/2000/svg">
<g filter="url(#filter0_f_621_10)">
<path d="M198.94 198.94C225.991 171.889 225.991 128.031 198.94 100.98C171.889 73.9291 128.031 73.9291 100.98 100.98C73.9291 128.031 73.9291 171.889 100.98 198.94C128.031 225.991 171.889 225.991 198.94 198.94Z" fill="url(#paint0_linear_621_10)" fill-opacity="0.58"/>
</g>
<path fill-rule="evenodd" clip-rule="evenodd" d="M146.441 136.124C148.242 136.711 150.113 137.007 152 137.007L152 137.007C153.893 137.007 155.764 136.709 157.564 136.122L157.919 136.006C158.783 137.646 159.872 139.153 161.161 140.494C162.434 141.816 163.867 142.94 165.425 143.835L165.371 144.013C164.807 145.89 164.52 147.851 164.52 149.847C164.52 151.837 164.805 153.799 165.367 155.679L165.416 155.843C163.857 156.748 162.424 157.88 161.149 159.216C159.803 160.63 158.669 162.235 157.781 163.988L157.557 163.915C153.964 162.74 150.019 162.742 146.44 163.912L146.215 163.986C145.334 162.244 144.202 160.639 142.852 159.218C141.586 157.889 140.153 156.755 138.586 155.847L138.637 155.676C139.199 153.796 139.484 151.834 139.484 149.845C139.484 147.859 139.199 145.896 138.637 144.015L138.582 143.832C140.314 142.838 141.886 141.564 143.259 140.044C144.364 138.823 145.31 137.465 146.079 136.006L146.441 136.124ZM166.792 156.001L166.839 156.161C169.113 163.91 175.83 169.115 183.555 169.115C186.378 169.115 189.186 168.389 191.679 167.013L191.637 166.872C190.798 164.063 189.279 161.472 187.245 159.378C183.908 155.947 179.471 154.056 174.752 154.056C171.988 154.056 169.244 154.728 166.792 156.001ZM192.814 167.322L192.858 167.471C194.936 174.575 193.12 182.249 188.117 187.5C184.513 191.281 179.724 193.364 174.633 193.364L174.633 193.364C172.725 193.364 170.835 193.066 169.019 192.479L168.69 192.373L168.685 192.382C165.403 198.953 159.008 203.036 151.998 203.036L151.998 203.035C144.992 203.035 138.598 198.953 135.311 192.382L135.308 192.377L134.982 192.482C133.154 193.068 131.263 193.366 129.364 193.366L129.365 193.366C124.272 193.366 119.486 191.283 115.885 187.503C110.881 182.254 109.064 174.58 111.143 167.474L111.187 167.325C104.902 163.87 101 157.179 101 149.846C101 142.523 104.892 135.84 111.162 132.379L111.143 132.313C109.136 125.525 110.793 118.095 115.466 112.924C119.052 108.949 124.119 106.67 129.364 106.67C131.267 106.67 133.155 106.963 134.972 107.543L135.315 107.652C138.596 101.08 144.989 97 152 97C159.011 97 165.406 101.081 168.69 107.654L169.027 107.546C170.841 106.965 172.729 106.67 174.638 106.67C179.729 106.67 184.516 108.73 188.118 112.471C193.122 117.676 194.939 125.28 192.86 132.316L192.843 132.376C199.112 135.839 203.002 142.523 203 149.844C203 157.179 199.099 163.869 192.814 167.322ZM191.656 132.758C189.177 131.406 186.379 130.692 183.56 130.692C175.835 130.692 169.118 135.846 166.848 143.517L166.797 143.692C169.253 144.964 171.996 145.634 174.753 145.634C179.469 145.634 183.905 143.742 187.247 140.309C189.28 138.22 190.799 135.628 191.639 132.814L191.656 132.758ZM135.776 191.219L135.453 191.324L135.447 191.314C134.12 188.693 133.419 185.723 133.419 182.726C133.419 174.61 138.378 167.554 145.76 165.173L145.988 165.1C149.554 172.268 148.319 180.925 142.912 186.654C140.918 188.768 138.451 190.347 135.776 191.219ZM168.553 191.311L168.546 191.325L168.221 191.219C165.544 190.345 163.076 188.768 161.085 186.654C155.681 180.926 154.447 172.269 158.008 165.101L158.238 165.175C165.622 167.555 170.581 174.607 170.581 182.723C170.581 185.723 169.88 188.692 168.553 191.311ZM146.105 134.699C149.585 127.452 148.129 118.56 142.519 112.975C140.573 111.041 138.305 109.642 135.778 108.819L135.441 108.709L135.438 108.715C134.11 111.308 133.41 114.245 133.41 117.21C133.41 125.244 138.368 132.225 145.743 134.583L146.105 134.699ZM168.558 108.711L168.227 108.819C165.518 109.7 163.117 111.235 161.091 113.379C155.746 119.049 154.479 127.583 157.9 134.697L158.256 134.583C165.635 132.222 170.59 125.24 170.59 117.209C170.59 114.248 169.889 111.311 168.562 108.717L168.558 108.711ZM156.2 134.817C153.466 135.543 150.547 135.544 147.802 134.817V134.817C151.221 127.048 149.562 117.707 143.611 111.785C141.723 109.91 139.558 108.495 137.162 107.571C140.28 102.041 145.886 98.6427 152 98.6427C158.115 98.6427 163.721 102.04 166.842 107.572C164.276 108.565 161.913 110.16 159.961 112.226C154.294 118.239 152.839 127.201 156.2 134.817ZM137.153 143.517L137.206 143.694C134.749 144.963 132.005 145.633 129.245 145.633C124.74 145.633 120.447 143.885 117.161 140.714C114.919 138.551 113.263 135.82 112.367 132.818L112.349 132.755C114.824 131.406 117.62 130.693 120.442 130.693C128.167 130.693 134.883 135.847 137.153 143.517ZM120.445 169.118C117.611 169.118 114.804 168.393 112.325 167.019L112.368 166.874C113.206 164.061 114.724 161.47 116.76 159.378C120.096 155.945 124.53 154.056 129.25 154.056C132.012 154.056 134.756 154.727 137.207 155.999L137.159 156.163C134.887 163.912 128.17 169.118 120.445 169.118ZM138.357 142.07C135.62 134.242 128.541 129.049 120.443 129.049C117.662 129.049 114.904 129.685 112.404 130.894C110.974 124.93 112.548 118.555 116.621 114.05C119.959 110.351 124.484 108.314 129.366 108.314C130.798 108.314 132.222 108.495 133.608 108.854C132.444 111.452 131.832 114.319 131.832 117.209C131.832 125.628 136.825 132.989 144.356 135.831C143.719 136.935 142.965 137.969 142.111 138.915C140.993 140.154 139.734 141.211 138.357 142.07ZM174.633 191.719C173.195 191.719 171.771 191.536 170.383 191.171L170.383 191.171C171.551 188.547 172.165 185.648 172.164 182.722C172.164 174.223 167.164 166.793 159.628 163.925C160.365 162.636 161.251 161.444 162.273 160.371C163.29 159.305 164.419 158.379 165.637 157.61C168.374 165.516 175.458 170.758 183.556 170.758C186.329 170.758 189.089 170.116 191.596 168.894C193.086 175.146 191.364 181.754 186.993 186.343C183.688 189.811 179.3 191.719 174.633 191.719ZM159.647 135.831C160.377 137.097 161.26 138.271 162.28 139.33C163.299 140.388 164.428 141.308 165.649 142.07C168.385 134.239 175.464 129.049 183.563 129.049C186.341 129.049 189.099 129.685 191.601 130.896C193.088 124.713 191.368 118.177 187.001 113.634C183.698 110.203 179.308 108.315 174.639 108.315C173.202 108.315 171.779 108.496 170.396 108.856C171.561 111.454 172.173 114.322 172.173 117.209C172.173 125.627 167.179 132.988 159.647 135.831ZM117.009 186.345C112.635 181.759 110.913 175.152 112.405 168.898L112.406 168.898C114.904 170.119 117.662 170.761 120.446 170.763C128.545 170.763 135.626 165.521 138.363 157.614C139.588 158.386 140.716 159.311 141.728 160.375C142.752 161.452 143.639 162.645 144.373 163.927C136.836 166.796 131.839 174.227 131.839 182.727C131.839 185.649 132.451 188.548 133.618 191.173C132.224 191.537 130.797 191.722 129.366 191.722C124.698 191.722 120.311 189.813 117.009 186.345ZM111.167 134.26C105.848 137.539 102.58 143.425 102.58 149.845C102.58 156.268 105.848 162.152 111.167 165.428C112.124 162.73 113.659 160.249 115.647 158.206C119.28 154.468 124.11 152.408 129.249 152.408C132.057 152.408 134.846 153.046 137.377 154.258C137.725 152.823 137.9 151.342 137.9 149.845C137.9 148.347 137.723 146.867 137.375 145.429C134.84 146.639 132.048 147.275 129.243 147.275C124.337 147.275 119.663 145.373 116.082 141.917C113.881 139.79 112.194 137.159 111.167 134.26L111.167 134.26ZM151.997 201.391C145.888 201.391 140.282 197.994 137.16 192.463C139.731 191.467 142.093 189.87 144.041 187.806C149.709 181.8 151.166 172.84 147.801 165.219C150.53 164.498 153.46 164.495 156.195 165.22C152.835 172.841 154.293 181.801 159.958 187.805C161.901 189.87 164.266 191.467 166.839 192.462C163.718 197.994 158.112 201.391 151.997 201.391ZM188.356 158.21C184.72 154.471 179.889 152.412 174.751 152.412L174.75 152.411C171.945 152.411 169.154 153.049 166.624 154.261C166.276 152.828 166.101 151.347 166.101 149.848C166.101 148.346 166.276 146.865 166.626 145.432C169.16 146.645 171.949 147.281 174.751 147.281C179.886 147.281 184.718 145.221 188.356 141.48C190.342 139.442 191.879 136.961 192.836 134.261C198.155 137.54 201.42 143.427 201.417 149.848C201.417 156.272 198.153 162.155 192.835 165.429C191.878 162.733 190.342 160.253 188.356 158.21Z" fill="white"/>
<defs>
<filter id="filter0_f_621_10" x="0.691406" y="0.691895" width="298.537" height="298.537" filterUnits="userSpaceOnUse" color-interpolation-filters="sRGB">
<feFlood flood-opacity="0" result="BackgroundImageFix"/>
<feBlend mode="normal" in="SourceGraphic" in2="BackgroundImageFix" result="shape"/>
<feGaussianBlur stdDeviation="40" result="effect1_foregroundBlur_621_10"/>
</filter>
<linearGradient id="paint0_linear_621_10" x1="100.98" y1="100.98" x2="198.94" y2="198.94" gradientUnits="userSpaceOnUse">
<stop stop-color="#FAFF00"/>
<stop offset="1" stop-color="#FF00C7"/>
</linearGradient>
</defs>
</svg>
